<svg width="96" height="97" viewBox="0 0 96 97" fill="none" xmlns="http://www.w3.org/2000/svg">
<rect x="1.49887" y="2.0488" width="93" height="93" fill="#3B3B3B" stroke="url(#paint0_linear_1167_73)" stroke-width="3"/>
<path d="M32.225 26.816C37.8242 24.4853 45.4384 17.4684 48.5852 14.2312C54.3146 20.4465 61.8529 25.1975 64.9455 26.816C64.4572 32.3191 63.3802 44.7251 62.9895 50.1633C62.6059 55.5047 60.3835 57.1769 59.5714 58.0944L48.5852 70.2335C45.8183 67.2662 39.5838 60.684 37.1098 58.0944C34.6357 55.5047 34.0172 51.728 34.0172 50.1633C33.4747 43.851 32.4855 30.3121 32.225 26.816Z" fill="url(#paint1_linear_1167_73)"/>
<path d="M66.2038 26.4994C60.8651 24.0391 53.2507 17.4555 50.1582 14.542C58.2314 19.7215 66.3117 23.0652 69.3501 23.9824C68.6447 32.399 67.1504 49.3833 66.8963 50.8087C66.5184 52.9274 65.9196 55.3407 63.9664 57.7685C62.404 59.7109 55.6702 65.1249 52.3605 67.7146C54.9648 64.963 59.7541 59.6917 61.1699 58.1186C63.1047 55.9689 63.8406 53.4458 64.0015 51.5116C64.5983 44.336 65.9435 29.607 66.2038 26.4994Z" fill="#EBCA67"/>
<path d="M66.2038 26.4994C60.8651 24.0391 53.2507 17.4555 50.1582 14.542C58.2314 19.7215 66.3117 23.0652 69.3501 23.9824C68.6447 32.399 67.1504 49.3833 66.8963 50.8087C66.5184 52.9274 65.9196 55.3407 63.9664 57.7685C62.404 59.7109 55.6702 65.1249 52.3605 67.7146C54.9648 64.963 59.7541 59.6917 61.1699 58.1186C63.1047 55.9689 63.8406 53.4458 64.0015 51.5116C64.5983 44.336 65.9435 29.607 66.2038 26.4994Z" fill="url(#paint2_linear_1167_73)"/>
<path d="M30.9664 26.4994C36.3051 24.0392 43.9195 17.4572 47.012 14.5438C38.9389 19.7232 30.8585 23.0652 27.8203 23.9824C28.5256 32.399 29.8564 49.385 30.1106 50.8106C30.4883 52.9292 31.2507 55.3424 33.2039 57.7704C34.7664 59.7126 41.5002 65.1266 44.8097 67.7164C42.2054 64.9648 37.2526 59.6935 35.8369 58.1205C33.9021 55.9707 33.1662 53.4475 33.0053 51.5133C32.4085 44.3378 31.2269 29.607 30.9664 26.4994Z" fill="#EBCA67"/>
<path d="M30.9664 26.4994C36.3051 24.0392 43.9195 17.4572 47.012 14.5438C38.9389 19.7232 30.8585 23.0652 27.8203 23.9824C28.5256 32.399 29.8564 49.385 30.1106 50.8106C30.4883 52.9292 31.2507 55.3424 33.2039 57.7704C34.7664 59.7126 41.5002 65.1266 44.8097 67.7164C42.2054 64.9648 37.2526 59.6935 35.8369 58.1205C33.9021 55.9707 33.1662 53.4475 33.0053 51.5133C32.4085 44.3378 31.2269 29.607 30.9664 26.4994Z" fill="url(#paint3_linear_1167_73)"/>
<path d="M71.2376 22.7272C61.0811 19.1017 54.8344 15.788 52.9898 14.5471C62.6255 18.4317 71.2914 19.581 74.3839 19.581C73.7328 27.2962 72.1696 43.7228 71.779 48.3842C71.2906 54.211 70.314 56.3152 67.7097 59.7141C65.6264 62.4333 56.6078 67.4032 52.3605 69.9202C55.5073 67.6003 62.1541 62.186 64.9428 59.3904C67.9342 56.3915 68.6864 51.8371 68.8491 49.8409C69.5002 42.1257 70.9773 25.8349 71.2376 22.7272Z" fill="#F4D56B"/>
<path d="M71.2376 22.7272C61.0811 19.1017 54.8344 15.788 52.9898 14.5471C62.6255 18.4317 71.2914 19.581 74.3839 19.581C73.7328 27.2962 72.1696 43.7228 71.779 48.3842C71.2906 54.211 70.314 56.3152 67.7097 59.7141C65.6264 62.4333 56.6078 67.4032 52.3605 69.9202C55.5073 67.6003 62.1541 62.186 64.9428 59.3904C67.9342 56.3915 68.6864 51.8371 68.8491 49.8409C69.5002 42.1257 70.9773 25.8349 71.2376 22.7272Z" fill="url(#paint4_linear_1167_73)"/>
<path d="M25.9324 22.7272C36.0889 19.1017 42.3357 15.788 44.1804 14.5471C34.5447 18.4317 25.8788 19.581 22.7862 19.581C23.4373 27.2962 24.8371 43.7245 25.2277 48.386C25.716 54.2128 26.6926 56.3169 29.2968 59.7159C31.3802 62.4351 40.3986 67.405 44.646 69.9221C41.4992 67.602 34.8525 62.1878 32.0638 59.3922C29.0724 56.3933 28.3202 51.8389 28.1575 49.8427C27.5064 42.1275 26.1929 25.8349 25.9324 22.7272Z" fill="#F4D56B"/>
<path d="M25.9324 22.7272C36.0889 19.1017 42.3357 15.788 44.1804 14.5471C34.5447 18.4317 25.8788 19.581 22.7862 19.581C23.4373 27.2962 24.8371 43.7245 25.2277 48.386C25.716 54.2128 26.6926 56.3169 29.2968 59.7159C31.3802 62.4351 40.3986 67.405 44.646 69.9221C41.4992 67.602 34.8525 62.1878 32.0638 59.3922C29.0724 56.3933 28.3202 51.8389 28.1575 49.8427C27.5064 42.1275 26.1929 25.8349 25.9324 22.7272Z" fill="url(#paint5_linear_1167_73)"/>
<path d="M55.6082 27.7634V42.2324H53.6833V29.7964L50.677 31.8294L49.7903 30.5318L53.8996 27.7634H55.6082Z" fill="#3B3B3B"/>
<path d="M44.2379 27.5255C45.6797 27.5255 46.7611 28.023 47.482 29.0178C48.2174 30.0127 48.5851 31.4185 48.5851 33.2352C48.5851 35.1529 48.3255 36.7245 47.8065 37.9501C47.2874 39.1612 46.5088 40.1345 45.4707 40.8698C44.4469 41.5908 43.0844 42.2035 41.383 42.7082L40.9505 41.2808C42.7095 40.7329 44.0432 40.0047 44.9516 39.0964C45.8744 38.1736 46.4079 36.9048 46.552 35.2899C46.1916 35.8089 45.759 36.2199 45.2544 36.5227C44.7642 36.811 44.209 36.9552 43.589 36.9552C42.9258 36.9552 42.313 36.7678 41.7507 36.3929C41.1884 36.018 40.7414 35.4845 40.4098 34.7924C40.0926 34.0859 39.934 33.2641 39.934 32.3269C39.934 31.3176 40.1214 30.4525 40.4963 29.7316C40.8712 29.0106 41.383 28.4627 42.0319 28.0878C42.6807 27.713 43.416 27.5255 44.2379 27.5255ZM44.0649 35.4845C45.0453 35.4845 45.8888 34.8717 46.5953 33.6462C46.6097 31.988 46.4295 30.8057 46.0546 30.0992C45.6941 29.3783 45.0958 29.0178 44.2595 29.0178C43.5097 29.0178 42.9258 29.299 42.5077 29.8613C42.0895 30.4092 41.8805 31.2383 41.8805 32.3485C41.8805 33.3722 42.0751 34.1508 42.4644 34.6843C42.8537 35.2178 43.3872 35.4845 44.0649 35.4845Z" fill="#3B3B3B"/>
<path d="M14.5542 76.3486H16.9183C17.4363 76.3486 17.9069 76.4202 18.3301 76.5632C18.7533 76.7063 19.1035 76.8959 19.3808 77.132C19.6581 77.3681 19.8879 77.6507 20.0704 77.9798C20.2601 78.3017 20.3951 78.6416 20.4753 78.9992C20.5629 79.3498 20.6066 79.7183 20.6066 80.1046C20.6066 80.4623 20.5665 80.8129 20.4862 81.1563C20.4133 81.4997 20.2819 81.8395 20.0922 82.1758C19.9098 82.5049 19.68 82.7946 19.4027 83.045C19.1255 83.2883 18.7679 83.485 18.3301 83.6352C17.8996 83.7855 17.4144 83.8606 16.8745 83.8606H14.5542V76.3486ZM17.0605 82.6479C17.4472 82.6479 17.7865 82.5728 18.0784 82.4226C18.3776 82.2724 18.6074 82.072 18.7679 81.8216C18.9358 81.5641 19.0562 81.2922 19.1291 81.006C19.2094 80.7199 19.2495 80.4194 19.2495 80.1046C19.2495 79.4035 19.0744 78.8061 18.7241 78.3125C18.3739 77.8117 17.8595 77.5613 17.1809 77.5613H15.8676V82.6479H17.0605Z" fill="#EDCF69"/>
<path d="M22.3198 83.8606V76.3486H27.3311V77.5613H23.6385V79.3313H25.8599V80.5465H23.6385V82.6479H27.5728V83.8606H22.3198Z" fill="#EDCF69"/>
<path d="M29.2855 83.8606V76.3486H34.196V77.5613H30.5891V79.3313H32.8256V80.5465H30.5891V83.8606H29.2855Z" fill="#EDCF69"/>
<path d="M35.9091 83.8606V76.3486H37.2795V83.8606H35.9091Z" fill="#EDCF69"/>
<path d="M42.0583 83.9705C41.3704 83.9705 40.7758 83.7997 40.2744 83.4579C39.7797 83.109 39.4288 82.6355 39.221 82.0373L40.4141 81.5994C40.5717 81.9483 40.7971 82.2296 41.0911 82.4432C41.3846 82.6497 41.7217 82.7529 42.1014 82.7529C42.4953 82.7529 42.8073 82.6639 43.0365 82.4859C43.2727 82.3079 43.3911 82.0516 43.3911 81.7169C43.3911 81.5816 43.3589 81.457 43.2945 81.3431C43.2301 81.222 43.1548 81.1224 43.0687 81.044C42.9901 80.9657 42.8679 80.8874 42.7032 80.809C42.5384 80.7307 42.3987 80.6702 42.2842 80.6275C42.1696 80.5776 42.0011 80.5171 41.779 80.4459C41.4921 80.3462 41.2701 80.2679 41.1124 80.2109C40.9618 80.1539 40.7649 80.0614 40.5215 79.9332C40.2848 79.7979 40.1021 79.6626 39.9733 79.5273C39.8516 79.3921 39.7404 79.214 39.64 78.9933C39.5467 78.7655 39.5003 78.5162 39.5003 78.2457C39.5003 77.676 39.7224 77.1989 40.1669 76.8144C40.611 76.4299 41.2128 76.2376 41.9722 76.2376C42.6028 76.2376 43.126 76.3872 43.5416 76.6862C43.9573 76.9782 44.2367 77.3627 44.3801 77.8398L43.2192 78.2243C42.9901 77.7116 42.5455 77.4552 41.8865 77.4552C41.5499 77.4552 41.2847 77.5265 41.0911 77.6689C40.9046 77.8042 40.8118 78 40.8118 78.2563C40.8118 78.4272 40.8833 78.5803 41.0267 78.7156C41.1773 78.8509 41.3344 78.9541 41.4997 79.0253C41.6715 79.0894 41.9225 79.1749 42.252 79.2817C42.4669 79.36 42.6279 79.4205 42.7354 79.4633C42.8499 79.4989 43.0076 79.5629 43.2083 79.6555C43.4091 79.7481 43.5667 79.8335 43.6813 79.9119C43.7959 79.9831 43.9251 80.0827 44.0681 80.2109C44.2187 80.3391 44.3332 80.4744 44.4123 80.6168C44.4909 80.7521 44.5591 80.9158 44.6164 81.1081C44.6737 81.2932 44.7025 81.4962 44.7025 81.7169C44.7025 82.4147 44.4516 82.9666 43.9502 83.3724C43.4555 83.7712 42.8248 83.9705 42.0583 83.9705Z" fill="white"/>
<path d="M51.531 83.8606L50.9264 82.2035H47.8429L47.2497 83.8606H45.8445L48.732 76.3486H50.0482L52.9248 83.8606H51.531ZM50.5264 81.0988L49.65 78.8061C49.5397 78.5342 49.4545 78.2803 49.3958 78.0442C49.3366 78.2516 49.2518 78.5056 49.1411 78.8061L48.2425 81.0988H50.5264Z" fill="white"/>
<path d="M54.6373 83.8606V76.3486H59.5479V77.5613H55.9412V79.3313H58.1777V80.5465H55.9412V83.8606H54.6373Z" fill="white"/>
<path d="M61.4895 83.8606V76.3486H66.5009V77.5613H62.808V79.3313H65.0294V80.5465H62.8028L62.808 82.6479H66.7423V83.8606H61.4895Z" fill="white"/>
<path d="M71.972 77.5638V83.8606H70.6492V77.5638H68.4557V76.3486H74.1655V77.5638H71.972Z" fill="white"/>
<path d="M78.5311 83.8606V80.9202L75.7638 76.3486H77.2575L79.1901 79.6002L81.1222 76.3486H82.616L79.8378 80.9202V83.8606H78.5311Z" fill="white"/>
<defs>
<linearGradient id="paint0_linear_1167_73" x1="47.9989" y1="3.5488" x2="47.9989" y2="93.5488" gradientUnits="userSpaceOnUse">
<stop stop-color="#CD9C27"/>
<stop offset="0.505208" stop-color="#F0DA7F"/>
<stop offset="1" stop-color="#B18726"/>
</linearGradient>
<linearGradient id="paint1_linear_1167_73" x1="48.5853" y1="14.2312" x2="48.5853" y2="70.2335" gradientUnits="userSpaceOnUse">
<stop stop-color="#C79525"/>
<stop offset="0.442708" stop-color="#F7E591"/>
<stop offset="1" stop-color="#BE8F25"/>
</linearGradient>
<linearGradient id="paint2_linear_1167_73" x1="59.7541" y1="14.542" x2="59.7541" y2="67.7146" gradientUnits="userSpaceOnUse">
<stop stop-color="#C79525"/>
<stop offset="0.442708" stop-color="#F7E591"/>
<stop offset="1" stop-color="#BE8F25"/>
</linearGradient>
<linearGradient id="paint3_linear_1167_73" x1="37.4161" y1="14.5438" x2="37.4161" y2="67.7164" gradientUnits="userSpaceOnUse">
<stop stop-color="#C79525"/>
<stop offset="0.442708" stop-color="#F7E591"/>
<stop offset="1" stop-color="#BE8F25"/>
</linearGradient>
<linearGradient id="paint4_linear_1167_73" x1="63.3722" y1="14.5471" x2="63.3722" y2="69.9202" gradientUnits="userSpaceOnUse">
<stop stop-color="#C79525"/>
<stop offset="0.442708" stop-color="#F7E591"/>
<stop offset="1" stop-color="#BE8F25"/>
</linearGradient>
<linearGradient id="paint5_linear_1167_73" x1="33.7161" y1="14.5471" x2="33.7161" y2="69.9221" gradientUnits="userSpaceOnUse">
<stop stop-color="#C79525"/>
<stop offset="0.442708" stop-color="#F7E591"/>
<stop offset="1" stop-color="#BE8F25"/>
</linearGradient>
</defs>
</svg>
