<svg version="1.1" id="Layer_1" xmlns="http://www.w3.org/2000/svg" xmlns:xlink="http://www.w3.org/1999/xlink" x="0px" y="0px"
	 width="100%" viewBox="0 0 122 122" enable-background="new 0 0 122 122" xml:space="preserve">
<path fill="#0E1717" opacity="1.000000" stroke="none" 
	d="
M1.000000,33.000000 
	C1.000000,22.000002 1.000000,11.500003 1.000000,1.000003 
	C41.666660,1.000002 82.333321,1.000002 122.999985,1.000001 
	C122.999992,41.666656 122.999992,82.333313 123.000000,122.999977 
	C82.333351,122.999985 41.666698,122.999985 1.000024,122.999992 
	C1.000000,93.166664 1.000000,63.333332 1.000000,33.000000 
M85.653397,121.978302 
	C86.109406,121.935913 86.565422,121.893532 87.950294,121.961510 
	C99.204262,121.961510 110.458229,121.961510 122.524788,121.961510 
	C121.609390,118.089729 120.892525,115.057648 120.869690,111.652046 
	C121.197136,108.094078 121.524582,104.536110 121.956635,100.075989 
	C121.915276,97.046982 121.873909,94.017982 121.968254,90.099861 
	C121.922333,87.397469 121.876411,84.695084 121.970741,81.065598 
	C121.926086,72.042168 121.881432,63.018742 121.978752,53.072464 
	C121.933525,48.053032 121.888298,43.033596 121.989601,37.108974 
	C121.937012,33.739380 121.884422,30.369783 121.980431,26.081770 
	C121.944626,21.734655 121.908821,17.387541 122.024376,12.124240 
	C122.024376,8.870155 122.024376,5.616071 122.024376,2.145064 
	C118.548050,2.145064 115.763466,2.145064 112.048958,2.045181 
	C86.701019,2.086072 61.353077,2.126964 35.076138,2.029473 
	C24.193266,2.029473 13.310396,2.029473 2.172080,2.029473 
	C2.172080,5.471583 2.172080,8.253541 2.052212,11.917871 
	C2.417896,15.265632 2.783579,18.613394 3.031797,22.781517 
	C2.983392,24.157885 2.934988,25.534254 2.203545,27.403660 
	C2.192436,30.274878 2.181327,33.146095 2.035137,36.928288 
	C2.079024,40.622101 2.122910,44.315918 2.026135,48.936470 
	C2.070624,61.618549 2.115113,74.300629 2.001851,87.883949 
	C2.693414,92.212074 3.384977,96.540199 4.040955,101.783287 
	C4.044542,104.512901 4.048129,107.242508 4.011334,110.672340 
	C3.997609,111.139091 3.983884,111.605835 3.262037,112.389526 
	C2.729442,115.429359 2.196847,118.469185 1.606253,121.840057 
	C6.146295,121.840057 9.560675,121.840057 13.905683,121.984772 
	C34.946117,121.934044 55.986549,121.883324 77.903969,121.941071 
	C80.261543,121.908211 82.619118,121.875351 85.653397,121.978302 
z"/>
<path fill="#2D2D2D" opacity="1.000000" stroke="none" 
	d="
M4.051716,109.972122 
	C4.048129,107.242508 4.044542,104.512901 4.404364,101.158554 
	C5.047154,96.049973 5.326536,91.566132 5.681608,86.668381 
	C5.854198,80.837662 5.951095,75.420860 6.360219,70.122818 
	C7.586973,72.057068 9.335298,73.903290 9.269720,75.682648 
	C9.005095,82.862930 7.714447,90.022552 7.713938,97.189865 
	C7.713545,102.721703 8.283595,108.678513 15.332157,111.001999 
	C16.105589,111.008224 16.547556,111.011574 17.073139,111.331497 
	C18.110489,112.425056 19.064222,113.202034 20.346401,113.977875 
	C21.112774,113.977066 21.550699,113.977394 22.362030,114.135834 
	C32.819569,114.656830 42.902973,115.046852 52.989536,115.320244 
	C53.647255,115.338074 54.329224,114.461128 55.249454,113.998169 
	C55.498997,113.995949 55.998093,113.992279 56.178192,114.134193 
	C56.906391,114.180534 57.454494,114.084953 58.251190,113.990402 
	C58.499790,113.991432 58.996983,113.994843 59.248497,113.995720 
	C59.667690,113.995918 59.835369,113.995247 60.335129,113.993996 
	C61.109989,113.993523 61.552765,113.993629 62.244724,113.997284 
	C62.493904,114.000839 62.992302,114.004349 63.072956,114.233856 
	C63.771820,114.310493 64.390030,114.157623 65.344589,113.938385 
	C66.785454,113.582184 67.889961,113.292366 69.065521,113.237595 
	C69.758217,113.649460 70.379875,113.826279 71.335403,114.002800 
	C72.114479,113.999298 72.559692,113.996101 73.337112,113.993378 
	C74.112282,113.995102 74.555244,113.996353 75.331558,113.999832 
	C76.109329,114.003113 76.553749,114.004150 77.322403,114.204727 
	C80.097961,114.269913 82.549286,114.135551 85.429291,114.001465 
	C87.571976,114.001465 89.285988,114.001190 91.251312,114.108734 
	C92.335243,114.145927 93.167862,114.075310 94.356857,114.032822 
	C96.475296,114.705620 98.237343,115.350288 100.275536,115.929337 
	C101.034630,115.577438 101.517586,115.291161 102.333740,115.004517 
	C103.111183,115.003372 103.555443,115.002586 104.436264,115.001495 
	C106.916046,115.001564 108.959251,115.001945 111.002487,115.370499 
	C111.001328,116.475014 111.000145,117.211342 110.535446,118.022598 
	C102.399002,118.187187 94.726059,118.276863 86.704819,118.289284 
	C85.886620,118.263252 85.416702,118.314476 84.537598,118.305176 
	C81.718971,118.307312 79.309547,118.369965 76.511200,118.327484 
	C56.075565,118.115440 36.028858,118.008522 15.864614,117.593643 
	C11.848626,114.847832 7.950171,112.409973 4.051716,109.972122 
z"/>
<path fill="#CE9E2C" opacity="1.000000" stroke="none" 
	d="
M36.005135,2.167856 
	C61.353077,2.126964 86.701019,2.086072 112.525398,2.444028 
	C112.986336,3.773514 112.970840,4.704152 112.586464,5.694906 
	C111.476936,5.844387 110.736275,5.933750 109.536545,5.936227 
	C104.386177,5.913293 99.694885,5.977246 94.579376,5.962367 
	C92.434769,5.939922 90.714371,5.996308 88.598923,5.979821 
	C87.137550,5.954311 86.071243,6.001674 84.672974,5.978120 
	C83.893288,5.953785 83.445564,6.000369 82.626053,5.982637 
	C81.503624,5.961939 80.752991,6.005555 79.553131,5.971900 
	C76.067131,5.948172 73.030350,6.001714 69.534172,5.983033 
	C64.718796,5.956689 60.362820,6.002569 55.634499,5.971713 
	C54.507179,5.943643 53.752213,5.992309 52.536209,5.966229 
	C47.371838,5.895629 42.668503,5.899775 37.762604,5.711646 
	C37.044228,5.310722 36.528416,5.102073 36.010338,4.552732 
	C36.007095,3.530646 36.006115,2.849251 36.005135,2.167856 
z"/>
<path fill="#AB8020" opacity="1.000000" stroke="none" 
	d="
M15.982147,117.901596 
	C36.028858,118.008522 56.075565,118.115440 76.530380,118.757050 
	C76.967979,120.138695 76.997482,120.985649 77.026985,121.832603 
	C55.986549,121.883324 34.946117,121.934044 13.454319,121.487137 
	C13.039056,120.131371 13.075156,119.273247 13.384174,118.306564 
	C14.432111,118.099205 15.207129,118.000404 15.982147,117.901596 
z"/>
<path fill="#BB8E25" opacity="1.000000" stroke="none" 
	d="
M87.053116,118.366547 
	C94.726059,118.276863 102.399002,118.187187 110.978455,118.091118 
	C113.775200,118.084724 115.665443,118.084724 117.804657,118.084724 
	C118.000122,115.723564 118.156677,113.832413 118.623665,111.946808 
	C119.347946,111.976768 119.761803,112.001167 120.175652,112.025558 
	C120.892525,115.057648 121.609390,118.089729 122.524788,121.961510 
	C110.458229,121.961510 99.204262,121.961510 87.478058,121.556839 
	C87.021591,120.223625 87.037354,119.295082 87.053116,118.366547 
z"/>
<path fill="#CA9A2B" opacity="1.000000" stroke="none" 
	d="
M35.540634,2.098665 
	C36.006115,2.849251 36.007095,3.530646 35.824280,4.704822 
	C35.391804,5.402773 35.186317,5.644631 34.554466,5.898560 
	C27.057991,5.926848 20.031071,5.979751 12.561077,5.960114 
	C10.101132,5.887577 8.084262,5.887577 6.109904,5.887577 
	C5.882272,8.133470 5.735569,9.580900 5.247190,11.033630 
	C3.994371,11.037786 3.083226,11.036642 2.172080,11.035499 
	C2.172080,8.253541 2.172080,5.471583 2.172080,2.029473 
	C13.310396,2.029473 24.193266,2.029473 35.540634,2.098665 
z"/>
<path fill="#F0D676" opacity="1.000000" stroke="none" 
	d="
M6.047993,70.004051 
	C5.951095,75.420860 5.854198,80.837662 5.388094,86.704369 
	C4.065794,87.097084 3.112699,87.039894 2.159603,86.982712 
	C2.115113,74.300629 2.070624,61.618549 2.439357,48.471615 
	C3.766948,48.007637 4.681318,48.008514 5.680209,48.470436 
	C5.859152,55.955666 5.953572,62.979858 6.047993,70.004051 
z"/>
<path fill="#DDC771" opacity="1.000000" stroke="none" 
	d="
M121.836769,53.995316 
	C121.881432,63.018742 121.926086,72.042168 121.560425,81.530167 
	C120.244446,81.988068 119.338799,81.981400 118.350342,81.515076 
	C118.313309,72.035912 118.359070,63.016407 118.748009,53.998924 
	C120.006378,53.999073 120.921577,53.997192 121.836769,53.995316 
z"/>
<path fill="#B28A2C" opacity="1.000000" stroke="none" 
	d="
M112.955338,5.634789 
	C112.970840,4.704152 112.986336,3.773514 112.990356,2.493970 
	C115.763466,2.145064 118.548050,2.145064 122.024376,2.145064 
	C122.024376,5.616071 122.024376,8.870155 121.598831,12.556808 
	C120.238838,13.016914 119.304398,13.044451 118.267792,12.634803 
	C118.034988,10.186298 117.904350,8.174978 117.776443,6.205689 
	C115.812820,5.973164 114.384079,5.803977 112.955338,5.634789 
z"/>
<path fill="#242424" opacity="1.000000" stroke="none" 
	d="
M15.864614,117.593643 
	C15.207129,118.000404 14.432111,118.099205 12.963375,118.244453 
	C10.001497,118.290901 7.733336,118.290901 5.706615,118.290901 
	C5.004642,115.777107 4.487401,113.924850 3.970159,112.072586 
	C3.983884,111.605835 3.997609,111.139091 4.031525,110.322235 
	C7.950171,112.409973 11.848626,114.847832 15.864614,117.593643 
z"/>
<path fill="#DEC264" opacity="1.000000" stroke="none" 
	d="
M121.907761,53.533890 
	C120.921577,53.997192 120.006378,53.999073 118.660614,53.540062 
	C118.290039,48.061237 118.350037,43.043297 118.753105,38.024952 
	C120.011803,38.021084 120.927437,38.017624 121.843063,38.014160 
	C121.888298,43.033596 121.933525,48.053032 121.907761,53.533890 
z"/>
<path fill="#D1A93F" opacity="1.000000" stroke="none" 
	d="
M118.369949,13.071987 
	C119.304398,13.044451 120.238838,13.016914 121.523148,13.014901 
	C121.908821,17.387541 121.944626,21.734655 121.563232,26.541798 
	C120.231575,27.006020 119.317123,27.010210 118.314713,26.560314 
	C118.143044,22.406734 118.059326,18.707245 118.069176,14.691143 
	C118.231812,13.940351 118.300880,13.506168 118.369949,13.071987 
z"/>
<path fill="#BD8F24" opacity="1.000000" stroke="none" 
	d="
M3.616098,112.231056 
	C4.487401,113.924850 5.004642,115.777107 5.706615,118.290901 
	C7.733336,118.290901 10.001497,118.290901 12.690456,118.353012 
	C13.075156,119.273247 13.039056,120.131371 12.989005,121.414780 
	C9.560675,121.840057 6.146295,121.840057 1.606253,121.840057 
	C2.196847,118.469185 2.729442,115.429359 3.616098,112.231056 
z"/>
<path fill="#EFD169" opacity="1.000000" stroke="none" 
	d="
M5.595687,48.009396 
	C4.681318,48.008514 3.766948,48.007637 2.509688,48.008247 
	C2.122910,44.315918 2.079024,40.622101 2.444246,36.471657 
	C3.764148,36.018497 4.674941,36.021965 5.668196,36.477867 
	C5.699001,40.623329 5.647345,44.316364 5.595687,48.009396 
z"/>
<path fill="#E5C35A" opacity="1.000000" stroke="none" 
	d="
M2.080727,87.433334 
	C3.112699,87.039894 4.065794,87.097084 5.312404,87.118271 
	C5.326536,91.566132 5.047154,96.049973 4.422156,100.701073 
	C3.384977,96.540199 2.693414,92.212074 2.080727,87.433334 
z"/>
<path fill="#D6B552" opacity="1.000000" stroke="none" 
	d="
M118.402672,27.014402 
	C119.317123,27.010210 120.231575,27.006020 121.488930,27.001007 
	C121.884422,30.369783 121.937012,33.739380 121.916336,37.561569 
	C120.927437,38.017624 120.011803,38.021084 118.662613,37.572758 
	C118.286919,33.752117 118.344795,30.383259 118.402672,27.014402 
z"/>
<path fill="#B79D4D" opacity="1.000000" stroke="none" 
	d="
M120.522675,111.838806 
	C119.761803,112.001167 119.347946,111.976768 118.523682,111.709702 
	C118.049110,111.307518 117.984962,111.148003 117.999878,110.539795 
	C118.178329,107.045853 118.277710,104.000587 118.724731,100.955887 
	C119.998932,100.963684 120.925484,100.970917 121.852036,100.978142 
	C121.524582,104.536110 121.197136,108.094078 120.522675,111.838806 
z"/>
<path fill="#D7AD40" opacity="1.000000" stroke="none" 
	d="
M2.112146,11.476685 
	C3.083226,11.036642 3.994371,11.037786 5.324078,11.402974 
	C5.836349,12.514812 5.930060,13.262606 5.934851,14.443552 
	C5.808623,17.228313 5.771317,19.579922 5.410830,21.941168 
	C4.441520,21.954254 3.795391,21.957705 3.149262,21.961155 
	C2.783579,18.613394 2.417896,15.265632 2.112146,11.476685 
z"/>
<path fill="#D5B553" opacity="1.000000" stroke="none" 
	d="
M121.904335,100.527069 
	C120.925484,100.970917 119.998932,100.963684 118.634689,100.712410 
	C118.126671,100.310280 118.056343,100.152199 118.072403,99.624451 
	C118.095184,98.503365 118.031586,97.751945 118.038574,96.669876 
	C118.057442,95.894196 118.005730,95.449173 118.036743,94.606728 
	C118.211220,93.134010 118.302979,92.058731 118.738495,90.983093 
	C119.999016,90.984825 120.915787,90.986900 121.832550,90.988976 
	C121.873909,94.017982 121.915276,97.046982 121.904335,100.527069 
z"/>
<path fill="#DCC162" opacity="1.000000" stroke="none" 
	d="
M121.900406,90.544418 
	C120.915787,90.986900 119.999016,90.984825 118.662048,90.538528 
	C118.305611,87.387779 118.369377,84.681259 118.433144,81.974731 
	C119.338799,81.981400 120.244446,81.988068 121.490295,81.993713 
	C121.876411,84.695084 121.922333,87.397469 121.900406,90.544418 
z"/>
<path fill="#E7C55A" opacity="1.000000" stroke="none" 
	d="
M5.585734,36.025436 
	C4.674941,36.021965 3.764148,36.018497 2.511786,36.016171 
	C2.181327,33.146095 2.192436,30.274878 2.829920,27.280174 
	C4.212483,27.468170 4.968673,27.779654 5.756207,28.530657 
	C5.720280,31.321932 5.653007,33.673683 5.585734,36.025436 
z"/>
<path fill="#BB8E25" opacity="1.000000" stroke="none" 
	d="
M77.465477,121.886841 
	C76.997482,120.985649 76.967979,120.138695 76.919304,118.862183 
	C79.309547,118.369965 81.718971,118.307312 84.547348,118.651245 
	C84.969765,119.986053 84.973228,120.914268 84.976700,121.842491 
	C82.619118,121.875351 80.261543,121.908211 77.465477,121.886841 
z"/>
<path fill="#AF9142" opacity="1.000000" stroke="none" 
	d="
M5.724862,28.091135 
	C4.968673,27.779654 4.212483,27.468170 3.171439,27.033655 
	C2.934988,25.534254 2.983392,24.157885 3.090530,22.371336 
	C3.795391,21.957705 4.441520,21.954254 5.505864,22.374786 
	C5.857673,24.562889 5.791267,26.327011 5.724862,28.091135 
z"/>
<path fill="#AB8020" opacity="1.000000" stroke="none" 
	d="
M85.315048,121.910400 
	C84.973228,120.914268 84.969765,119.986053 84.956543,118.711761 
	C85.416702,118.314476 85.886620,118.263252 86.704819,118.289284 
	C87.037354,119.295082 87.021591,120.223625 87.013626,121.501648 
	C86.565422,121.893532 86.109406,121.935913 85.315048,121.910400 
z"/>
<path fill="#333333" opacity="1.000000" stroke="none" 
	d="
M5.756207,28.530657 
	C5.791267,26.327011 5.857673,24.562889 5.829044,22.365147 
	C5.771317,19.579922 5.808623,17.228313 6.265763,14.357758 
	C8.791781,11.236757 10.897965,8.634706 13.004150,6.032653 
	C20.031071,5.979751 27.057991,5.926848 34.563126,6.236116 
	C35.073895,7.047049 35.106445,7.495811 34.747780,8.030176 
	C32.238007,8.412631 30.119459,8.709483 27.654076,9.024734 
	C26.204197,9.365912 25.101158,9.688694 23.598473,10.009905 
	C22.133093,10.010620 21.067360,10.012907 19.630016,10.023861 
	C13.420310,11.950516 8.787608,17.663050 9.067636,23.436026 
	C9.481463,31.967430 10.329333,40.477783 10.689528,49.136650 
	C10.063205,49.972904 9.419567,50.691872 9.466218,51.362846 
	C9.892794,57.498260 10.467486,63.623158 10.942145,69.755524 
	C11.335258,74.834343 11.651674,79.919098 12.001909,85.333878 
	C12.003388,86.110100 12.005029,86.553665 12.104776,87.279892 
	C12.796515,88.047165 13.390145,88.531784 13.985998,89.346733 
	C13.990367,90.117462 13.992514,90.557854 13.696857,91.243683 
	C10.365065,98.285355 12.028262,104.695976 15.000690,110.999123 
	C8.283595,108.678513 7.713545,102.721703 7.713938,97.189865 
	C7.714447,90.022552 9.005095,82.862930 9.269720,75.682648 
	C9.335298,73.903290 7.586973,72.057068 6.360219,70.122818 
	C5.953572,62.979858 5.859152,55.955666 5.680209,48.470436 
	C5.647345,44.316364 5.699001,40.623329 5.668196,36.477867 
	C5.653007,33.673683 5.720280,31.321932 5.756207,28.530657 
z"/>
<path fill="#383838" opacity="1.000000" stroke="none" 
	d="
M15.332157,111.001999 
	C12.028262,104.695976 10.365065,98.285355 13.951818,91.359787 
	C15.001187,91.488083 15.497789,91.745720 16.216423,92.186729 
	C16.969397,92.580238 17.500340,92.790367 18.089069,93.319221 
	C18.462616,94.445427 18.778376,95.252914 19.055487,96.496178 
	C18.961163,99.264420 18.905485,101.596878 18.594917,104.073334 
	C16.581934,106.590675 18.308628,106.753242 20.456392,106.921249 
	C22.226864,106.916588 23.588137,106.898972 25.409830,106.901077 
	C29.937336,106.602783 34.004421,106.284782 38.359039,105.978798 
	C39.028809,105.957336 39.411049,105.923851 40.185745,105.917114 
	C43.163307,106.752831 45.770409,108.302994 48.329235,108.227028 
	C55.079941,108.026619 61.807697,106.686760 68.548538,106.655640 
	C72.695778,106.636490 77.666092,104.080963 81.009987,109.230820 
	C81.004822,109.662361 81.003479,109.834991 81.001160,110.339096 
	C80.998474,111.112534 80.996765,111.554489 80.595688,111.996742 
	C79.130981,111.998894 78.065643,112.000755 76.717758,112.102219 
	C75.956207,112.800423 75.477203,113.399017 74.998199,113.997604 
	C74.555244,113.996353 74.112282,113.995102 73.223076,113.676422 
	C69.325554,109.285767 68.160530,109.354355 61.995544,113.993736 
	C61.552765,113.993629 61.109989,113.993523 60.219505,113.911446 
	C59.485065,113.724617 59.226791,113.779747 58.996983,113.994843 
	C58.996983,113.994843 58.499790,113.991432 58.171871,113.761200 
	C57.228664,113.684738 56.613380,113.838509 55.998093,113.992279 
	C55.998093,113.992279 55.498997,113.995949 54.959358,113.798508 
	C45.954052,109.166214 36.898193,111.186836 28.054680,111.393578 
	C26.013639,111.441292 24.009661,113.074249 21.988626,113.977722 
	C21.550699,113.977394 21.112774,113.977066 20.299416,113.636177 
	C18.945831,112.535378 17.967676,111.775154 16.989521,111.014923 
	C16.547556,111.011574 16.105589,111.008224 15.332157,111.001999 
z"/>
<path fill="#323232" opacity="1.000000" stroke="none" 
	d="
M22.362030,114.135834 
	C24.009661,113.074249 26.013639,111.441292 28.054680,111.393578 
	C36.898193,111.186836 45.954052,109.166214 54.709816,113.800728 
	C54.329224,114.461128 53.647255,115.338074 52.989536,115.320244 
	C42.902973,115.046852 32.819569,114.656830 22.362030,114.135834 
z"/>
<path fill="#232323" opacity="1.000000" stroke="none" 
	d="
M117.920815,110.988480 
	C117.984962,111.148003 118.049110,111.307518 118.213242,111.704147 
	C118.156677,113.832413 118.000122,115.723564 117.804657,118.084724 
	C115.665443,118.084724 113.775200,118.084724 111.441956,118.016205 
	C111.000145,117.211342 111.001328,116.475014 111.001320,115.369537 
	C111.000122,115.000397 111.006401,115.006104 111.336105,114.925163 
	C113.750816,113.558975 115.835815,112.273727 117.920815,110.988480 
z"/>
<path fill="#333333" opacity="1.000000" stroke="none" 
	d="
M80.995064,111.996452 
	C80.996765,111.554489 80.998474,111.112534 81.404800,110.372505 
	C84.874222,111.045341 87.939018,112.016243 91.002838,113.240593 
	C91.001244,113.662994 91.000618,113.831955 91.000000,114.000916 
	C89.285988,114.001190 87.571976,114.001465 85.179794,113.802681 
	C83.332779,113.067902 82.163918,112.532181 80.995064,111.996452 
z"/>
<path fill="#333333" opacity="1.000000" stroke="none" 
	d="
M62.244724,113.997284 
	C68.160530,109.354355 69.325554,109.285767 72.890862,113.675941 
	C72.559692,113.996101 72.114479,113.999298 71.117691,113.819107 
	C70.042236,113.424667 69.518356,113.213608 68.994476,113.002548 
	C67.889961,113.292366 66.785454,113.582184 65.008545,113.937332 
	C63.888203,114.003212 63.440250,114.003777 62.992302,114.004349 
	C62.992302,114.004349 62.493904,114.000839 62.244724,113.997284 
z"/>
<path fill="#323232" opacity="1.000000" stroke="none" 
	d="
M80.595688,111.996742 
	C82.163918,112.532181 83.332779,113.067902 84.751122,113.802414 
	C82.549286,114.135551 80.097961,114.269913 77.322983,113.870880 
	C76.999649,112.892525 76.999977,112.447563 77.000305,112.002609 
	C78.065643,112.000755 79.130981,111.998894 80.595688,111.996742 
z"/>
<path fill="#323232" opacity="1.000000" stroke="none" 
	d="
M111.001289,115.001358 
	C108.959251,115.001945 106.916046,115.001564 104.553940,114.747406 
	C104.490036,113.995453 104.745018,113.497269 105.246689,112.997025 
	C105.493370,112.994957 105.986748,112.993370 106.345703,112.922394 
	C108.136169,112.567612 109.567665,112.283806 110.999481,112.375702 
	C111.002007,113.502968 111.004204,114.254539 111.006401,115.006104 
	C111.006401,115.006104 111.000122,115.000397 111.001289,115.001358 
z"/>
<path fill="#333333" opacity="1.000000" stroke="none" 
	d="
M99.999390,115.994965 
	C98.237343,115.350288 96.475296,114.705620 94.356636,113.780540 
	C93.999901,113.331985 93.999771,113.163834 94.268066,112.846115 
	C96.357780,113.129677 98.179070,113.562798 100.000221,114.329132 
	C99.999863,115.106544 99.999626,115.550758 99.999390,115.994965 
z"/>
<path fill="#323232" opacity="1.000000" stroke="none" 
	d="
M17.073139,111.331497 
	C17.967676,111.775154 18.945831,112.535378 19.970972,113.637306 
	C19.064222,113.202034 18.110489,112.425056 17.073139,111.331497 
z"/>
<path fill="#323232" opacity="1.000000" stroke="none" 
	d="
M56.178192,114.134193 
	C56.613380,113.838509 57.228664,113.684738 57.923271,113.760178 
	C57.454494,114.084953 56.906391,114.180534 56.178192,114.134193 
z"/>
<path fill="#333333" opacity="1.000000" stroke="none" 
	d="
M105.000000,112.999084 
	C104.745018,113.497269 104.490036,113.995453 104.117371,114.747711 
	C103.555443,115.002586 103.111183,115.003372 102.333305,114.750824 
	C101.999413,114.328400 101.999153,114.159309 102.259613,113.800919 
	C103.346901,113.407433 104.173447,113.203255 105.000000,112.999084 
z"/>
<path fill="#323232" opacity="1.000000" stroke="none" 
	d="
M93.999634,112.995682 
	C93.999771,113.163834 93.999901,113.331985 94.000244,113.752411 
	C93.167862,114.075310 92.335243,114.145927 91.251312,114.108734 
	C91.000618,113.831955 91.001244,113.662994 91.377258,113.242645 
	C92.501648,112.992729 93.250641,112.994209 93.999634,112.995682 
z"/>
<path fill="#323232" opacity="1.000000" stroke="none" 
	d="
M63.072956,114.233856 
	C63.440250,114.003777 63.888203,114.003212 64.672195,114.003708 
	C64.390030,114.157623 63.771820,114.310493 63.072956,114.233856 
z"/>
<path fill="#323232" opacity="1.000000" stroke="none" 
	d="
M101.998886,113.990219 
	C101.999153,114.159309 101.999413,114.328400 102.000107,114.751190 
	C101.517586,115.291161 101.034630,115.577438 100.275536,115.929337 
	C99.999626,115.550758 99.999863,115.106544 100.333313,114.328278 
	C101.110649,113.992889 101.554771,113.991554 101.998886,113.990219 
z"/>
<path fill="#323232" opacity="1.000000" stroke="none" 
	d="
M69.065521,113.237595 
	C69.518356,113.213608 70.042236,113.424667 70.783821,113.819412 
	C70.379875,113.826279 69.758217,113.649460 69.065521,113.237595 
z"/>
<path fill="#333333" opacity="1.000000" stroke="none" 
	d="
M76.717758,112.102219 
	C76.999977,112.447563 76.999649,112.892525 76.998749,113.671333 
	C76.553749,114.004150 76.109329,114.003113 75.331558,113.999832 
	C75.477203,113.399017 75.956207,112.800423 76.717758,112.102219 
z"/>
<path fill="#323232" opacity="1.000000" stroke="none" 
	d="
M59.248497,113.995720 
	C59.226791,113.779747 59.485065,113.724617 59.887421,113.912018 
	C59.835369,113.995247 59.667690,113.995918 59.248497,113.995720 
z"/>
<path fill="#333333" opacity="1.000000" stroke="none" 
	d="
M118.350342,81.515076 
	C118.369377,84.681259 118.305611,87.387779 118.318291,90.538879 
	C118.302979,92.058731 118.211220,93.134010 117.810440,94.686676 
	C117.656944,95.776207 117.812462,96.388374 117.967987,97.000534 
	C118.031586,97.751945 118.095184,98.503365 117.748505,99.713394 
	C115.903328,101.452034 114.468430,102.732040 112.830170,103.710960 
	C112.508133,102.288109 111.873268,100.829132 112.351387,100.097260 
	C116.663406,93.496704 112.683701,86.117569 114.579018,79.029236 
	C116.420860,72.140953 114.995552,64.379074 115.157318,56.707417 
	C115.528488,46.545609 115.874733,36.677135 115.870140,26.808826 
	C115.869080,24.538729 114.663742,22.269190 114.010773,19.600281 
	C114.002678,18.136852 113.996437,17.072540 113.910950,15.671909 
	C111.816063,11.261484 108.686890,8.918975 103.610229,9.015400 
	C101.486443,9.345653 99.745888,9.669442 97.889679,9.696986 
	C96.850555,8.280892 95.927071,7.161045 95.003586,6.041198 
	C99.694885,5.977246 104.386177,5.913293 109.625992,6.263646 
	C112.774879,9.454552 115.375252,12.231153 117.975616,15.007754 
	C118.059326,18.707245 118.143044,22.406734 118.314713,26.560314 
	C118.344795,30.383259 118.286919,33.752117 118.319534,37.573166 
	C118.350037,43.043297 118.290039,48.061237 118.317436,53.538036 
	C118.359070,63.016407 118.313309,72.035912 118.350342,81.515076 
z"/>
<path fill="#373737" opacity="1.000000" stroke="none" 
	d="
M69.993576,6.055257 
	C73.030350,6.001714 76.067131,5.948172 79.552422,6.337861 
	C80.004288,7.515101 80.007637,8.249108 79.655029,9.054941 
	C74.525040,9.758338 69.750999,10.389909 64.648331,11.022636 
	C63.881279,11.026004 63.442856,11.028214 62.804642,10.901054 
	C62.070240,11.181852 61.535633,11.592021 60.756958,12.088394 
	C59.676353,12.115157 58.839821,12.055716 57.870953,11.693403 
	C56.156460,10.588975 54.574303,9.787416 52.993713,8.617743 
	C52.995937,7.513412 52.996590,6.777193 52.997238,6.040974 
	C53.752213,5.992309 54.507179,5.943643 55.819984,6.305121 
	C61.011967,8.466641 65.610451,9.482311 69.993576,6.055257 
z"/>
<path fill="#333333" opacity="1.000000" stroke="none" 
	d="
M52.536205,5.966228 
	C52.996590,6.777193 52.995937,7.513412 52.532150,8.621499 
	C47.332481,8.643969 42.595951,8.294569 37.893913,7.606041 
	C37.940662,6.812582 37.952915,6.358251 37.965168,5.903920 
	C42.668503,5.899775 47.371838,5.895629 52.536205,5.966228 
z"/>
<path fill="#373737" opacity="1.000000" stroke="none" 
	d="
M94.579376,5.962366 
	C95.927071,7.161045 96.850555,8.280892 97.497833,9.668552 
	C92.479759,9.620149 87.737892,9.303934 82.996887,8.619647 
	C82.997780,7.516700 82.997810,6.781826 82.997841,6.046952 
	C83.445564,6.000369 83.893288,5.953785 84.800720,6.264466 
	C86.504944,6.432051 87.749458,6.242372 88.993973,6.052693 
	C90.714371,5.996308 92.434769,5.939922 94.579376,5.962366 
z"/>
<path fill="#2A2A2A" opacity="1.000000" stroke="none" 
	d="
M118.069183,14.691143 
	C115.375252,12.231153 112.774879,9.454552 110.085068,6.350532 
	C110.736275,5.933750 111.476936,5.844387 112.586464,5.694907 
	C114.384079,5.803977 115.812820,5.973164 117.776443,6.205689 
	C117.904350,8.174978 118.034988,10.186298 118.267792,12.634803 
	C118.300880,13.506168 118.231812,13.940351 118.069183,14.691143 
z"/>
<path fill="#333333" opacity="1.000000" stroke="none" 
	d="
M69.534172,5.983033 
	C65.610451,9.482311 61.011967,8.466641 56.192333,6.381857 
	C60.362820,6.002569 64.718796,5.956689 69.534172,5.983033 
z"/>
<path fill="#B28A2C" opacity="1.000000" stroke="none" 
	d="
M37.762604,5.711646 
	C37.952915,6.358251 37.940662,6.812582 37.553864,7.607153 
	C36.499207,7.946453 35.819103,7.945513 35.139000,7.944573 
	C35.106445,7.495811 35.073895,7.047049 35.032681,6.260731 
	C35.186317,5.644631 35.391804,5.402773 35.826538,5.045513 
	C36.528416,5.102073 37.044228,5.310722 37.762604,5.711646 
z"/>
<path fill="#333333" opacity="1.000000" stroke="none" 
	d="
M82.626053,5.982637 
	C82.997810,6.781826 82.997780,7.516700 82.623734,8.621334 
	C81.503471,8.988434 80.757225,8.985775 80.010986,8.983116 
	C80.007637,8.249108 80.004288,7.515101 80.001648,6.415133 
	C80.752991,6.005555 81.503624,5.961939 82.626053,5.982637 
z"/>
<path fill="#333333" opacity="1.000000" stroke="none" 
	d="
M88.598923,5.979821 
	C87.749458,6.242372 86.504944,6.432051 85.132675,6.335384 
	C86.071243,6.001674 87.137550,5.954311 88.598923,5.979821 
z"/>
<path fill="#272727" opacity="1.000000" stroke="none" 
	d="
M12.561077,5.960114 
	C10.897965,8.634706 8.791781,11.236757 6.354684,13.924604 
	C5.930060,13.262606 5.836349,12.514812 5.665751,11.397675 
	C5.735569,9.580900 5.882272,8.133470 6.109904,5.887577 
	C8.084262,5.887577 10.101132,5.887577 12.561077,5.960114 
z"/>
<path fill="#2D2D2D" opacity="1.000000" stroke="none" 
	d="
M113.033531,104.012047 
	C114.468430,102.732040 115.903328,101.452034 117.662125,100.083069 
	C118.056343,100.152199 118.126671,100.310280 118.287048,100.711845 
	C118.277710,104.000587 118.178329,107.045853 117.999878,110.539795 
	C115.835815,112.273727 113.750816,113.558975 111.336105,114.925163 
	C111.004204,114.254539 111.002007,113.502968 111.111351,112.055061 
	C111.810104,109.901093 112.397308,108.443459 112.987534,106.613884 
	C113.004883,105.498642 113.019203,104.755348 113.033531,104.012047 
z"/>
<path fill="#2D2D2D" opacity="1.000000" stroke="none" 
	d="
M118.038574,96.669876 
	C117.812462,96.388374 117.656944,95.776207 117.727722,95.084106 
	C118.005730,95.449173 118.057442,95.894196 118.038574,96.669876 
z"/>
<path fill="#3B3B3B" opacity="1.000000" stroke="none" 
	d="
M10.992382,48.997097 
	C10.329333,40.477783 9.481463,31.967430 9.067636,23.436026 
	C8.787608,17.663050 13.420310,11.950516 19.550388,10.351659 
	C19.228539,12.114930 18.614706,13.559069 17.704494,15.196595 
	C16.274897,17.994921 14.479230,20.520815 14.156865,23.222502 
	C13.613390,27.777287 13.655854,32.479954 14.133349,37.049206 
	C14.417538,39.768677 16.003569,42.352104 16.977055,45.369308 
	C16.783030,48.348434 16.499269,50.953796 16.473860,53.561680 
	C16.420898,58.997368 16.429966,64.437080 16.625849,69.867477 
	C16.650515,70.551270 18.107639,71.085815 18.632284,71.869461 
	C19.728071,73.506203 20.644287,75.263161 21.634270,76.970741 
	C19.756832,77.981209 17.879396,78.991669 15.967645,79.621902 
	C15.179784,74.524406 14.440033,69.804871 13.669049,65.090454 
	C12.791373,59.723621 11.885818,54.361351 10.992382,48.997097 
z"/>
<path fill="#383838" opacity="1.000000" stroke="none" 
	d="
M10.689527,49.136650 
	C11.885818,54.361351 12.791373,59.723621 13.669049,65.090454 
	C14.440033,69.804871 15.179784,74.524406 15.966676,79.620834 
	C16.000021,80.000000 16.001780,80.001572 15.718867,80.101517 
	C14.958449,80.802467 14.480943,81.403488 14.004079,82.379051 
	C14.005116,83.502762 14.005510,84.251930 13.671908,85.000916 
	C12.892631,85.000908 12.447350,85.001068 12.002069,85.001228 
	C11.651674,79.919098 11.335258,74.834343 10.942145,69.755524 
	C10.467486,63.623158 9.892794,57.498260 9.466218,51.362846 
	C9.419567,50.691872 10.063205,49.972904 10.689527,49.136650 
z"/>
<path fill="#3D3D3D" opacity="1.000000" stroke="none" 
	d="
M34.747776,8.030176 
	C35.819103,7.945513 36.499207,7.946453 37.519367,7.946281 
	C42.595951,8.294569 47.332481,8.643969 52.530579,8.989612 
	C54.574303,9.787416 56.156460,10.588975 57.458874,11.695761 
	C54.456020,12.005938 51.732910,12.010887 48.632469,12.012262 
	C47.500637,12.012286 46.746132,12.015883 45.525162,12.017481 
	C39.941818,12.190874 34.825310,12.444372 29.707716,12.468688 
	C28.800936,12.472997 27.889620,11.522727 27.165930,10.795688 
	C27.567945,10.054188 27.784428,9.530262 28.000912,9.006335 
	C30.119459,8.709483 32.238007,8.412631 34.747776,8.030176 
z"/>
<path fill="#3D3D3D" opacity="1.000000" stroke="none" 
	d="
M18.000874,15.003206 
	C18.614706,13.559069 19.228539,12.114930 19.922001,10.342993 
	C21.067360,10.012907 22.133093,10.010620 23.601841,10.266520 
	C24.007162,10.695879 24.009464,10.867050 23.893032,11.332129 
	C22.850964,12.750733 21.927628,13.875430 20.628849,15.000176 
	C19.502563,15.001220 18.751719,15.002213 18.000874,15.003206 
z"/>
<path fill="#3B3B3B" opacity="1.000000" stroke="none" 
	d="
M12.001909,85.333878 
	C12.447350,85.001068 12.892631,85.000908 13.885542,85.289398 
	C14.953579,87.719818 15.473986,89.861588 15.994392,92.003357 
	C15.497789,91.745720 15.001187,91.488083 14.249622,91.114349 
	C13.992514,90.557854 13.990367,90.117462 13.890898,89.061920 
	C13.197939,87.963593 12.602303,87.480415 12.006668,86.997231 
	C12.005029,86.553665 12.003388,86.110100 12.001909,85.333878 
z"/>
<path fill="#3B3B3B" opacity="1.000000" stroke="none" 
	d="
M24.011765,11.038223 
	C24.009464,10.867050 24.007162,10.695879 24.001488,10.268091 
	C25.101158,9.688694 26.204197,9.365912 27.654076,9.024734 
	C27.784428,9.530262 27.567945,10.054188 26.795101,10.796627 
	C25.496416,11.022834 24.754091,11.030528 24.011765,11.038223 
z"/>
<path fill="#383838" opacity="1.000000" stroke="none" 
	d="
M12.104776,87.279892 
	C12.602303,87.480415 13.197939,87.963593 13.888676,88.731583 
	C13.390145,88.531784 12.796515,88.047165 12.104776,87.279892 
z"/>
<path fill="#474642" opacity="1.000000" stroke="none" 
	d="
M81.013809,108.971901 
	C77.666092,104.080963 72.695778,106.636490 68.548538,106.655640 
	C61.807697,106.686760 55.079941,108.026619 48.329235,108.227028 
	C45.770409,108.302994 43.163307,106.752831 40.217033,105.561386 
	C40.442104,103.082413 41.028355,100.985901 41.790207,98.261414 
	C41.815311,98.251999 42.748226,97.902039 44.854530,97.111916 
	C42.411106,96.599228 41.209721,96.347145 40.091953,95.741425 
	C41.753208,91.550293 42.825878,87.187035 49.411816,88.116081 
	C43.962254,84.285088 39.482437,81.135818 34.973129,77.626190 
	C33.296509,74.513298 31.649372,71.760765 30.002682,68.575790 
	C29.721270,65.845970 28.941532,63.464874 29.309481,61.276764 
	C29.623964,59.406624 31.255432,57.757950 32.459900,56.378769 
	C33.389324,61.203197 34.163223,65.660179 34.977222,70.477478 
	C36.878010,78.743599 43.981441,80.203468 49.992809,83.006691 
	C49.998665,83.000160 49.988964,83.007050 50.017776,83.181946 
	C50.362206,83.573906 50.677826,83.790970 51.310791,84.064987 
	C52.783260,83.681587 53.938389,83.241234 55.393288,82.959152 
	C60.148685,86.165771 64.351692,86.756699 68.277878,81.715279 
	C69.686966,81.016235 70.808075,80.455269 71.931831,80.254608 
	C71.934479,82.088844 71.934479,83.562775 71.934479,84.787048 
	C75.455421,82.769226 78.738350,80.887802 82.339645,78.867073 
	C85.092117,77.150536 87.526222,75.573318 89.938034,74.359085 
	C86.451401,78.894516 82.987045,83.066963 79.722923,86.998245 
	C86.150032,88.552223 93.650291,90.325150 101.127426,92.190781 
	C104.811333,93.109955 106.845116,90.651352 107.470284,88.048332 
	C108.601646,83.337654 108.824181,78.398300 109.215050,73.537437 
	C109.251266,73.087082 107.773346,72.514969 106.846558,71.752274 
	C106.795341,70.339447 106.896034,69.173737 107.349030,67.899750 
	C108.469849,66.319511 109.324677,64.885025 109.984184,63.365749 
	C110.740768,61.622883 111.324173,59.804840 112.185257,58.339222 
	C112.254906,65.159401 112.401505,71.681747 111.893723,78.152733 
	C111.539375,82.668343 110.272278,87.110596 109.443466,91.591263 
	C108.763985,95.264725 106.441994,96.916229 102.597412,97.173203 
	C101.864662,97.843140 101.387665,98.403885 100.708565,98.956047 
	C100.506462,98.947472 100.102074,98.959717 99.858871,98.740906 
	C99.145988,98.232010 98.676315,97.941933 98.206642,97.651848 
	C98.123039,98.465195 98.039436,99.278534 98.029022,100.459122 
	C98.403923,102.548904 98.705627,104.271446 98.613144,106.001343 
	C92.483902,106.996429 86.748856,107.984161 81.013809,108.971901 
M89.520958,102.265541 
	C89.709167,103.450195 89.897377,104.634857 90.085587,105.819511 
	C90.346138,105.819771 90.606697,105.820038 90.867249,105.820297 
	C91.704147,102.814278 92.541046,99.808250 93.421875,96.644432 
	C91.653725,96.644432 89.620995,96.644432 87.507088,96.644432 
	C88.265114,98.471123 88.887093,99.969940 89.520958,102.265541 
M69.527214,86.499306 
	C69.527214,86.499306 69.487465,86.513504 69.527214,86.499306 
z"/>
<path fill="#414140" opacity="1.000000" stroke="none" 
	d="
M35.002617,77.986549 
	C39.482437,81.135818 43.962254,84.285088 49.411816,88.116081 
	C42.825878,87.187035 41.753208,91.550293 39.841835,95.810966 
	C39.163872,96.246872 38.819649,96.259590 38.235313,96.051788 
	C34.689579,91.949402 32.698395,97.499359 30.046408,96.585098 
	C28.759880,99.595161 32.338261,103.913925 27.096924,104.680984 
	C26.798227,102.930130 26.361654,101.497246 25.962086,100.039444 
	C25.999094,100.014519 25.950939,100.088593 25.952023,99.740005 
	C25.957823,98.926666 25.962538,98.461906 26.053621,97.886276 
	C26.246824,97.483215 26.168907,97.243774 25.600632,96.905182 
	C24.211601,96.434700 23.128183,96.116096 21.974548,95.463684 
	C20.613316,94.420090 19.322298,93.710297 18.031281,93.000504 
	C17.500340,92.790367 16.969397,92.580238 16.216423,92.186729 
	C15.473986,89.861588 14.953579,87.719818 14.219540,85.289566 
	C14.005510,84.251930 14.005116,83.502762 14.285863,82.277336 
	C15.045263,81.201241 15.523520,80.601402 16.001778,80.001572 
	C16.001780,80.001572 16.000021,80.000000 16.000990,80.001068 
	C17.879396,78.991669 19.756832,77.981209 21.634270,76.970741 
	C20.644287,75.263161 19.728071,73.506203 18.632284,71.869461 
	C18.107639,71.085815 16.650515,70.551270 16.625849,69.867477 
	C16.429966,64.437080 16.420898,58.997368 16.473860,53.561680 
	C16.499269,50.953796 16.783030,48.348434 17.322683,45.391106 
	C18.796711,45.360394 19.897840,45.680504 20.999655,46.250496 
	C21.000340,46.500385 21.002182,47.000175 21.032906,47.368011 
	C21.611729,52.483246 26.404144,51.846642 29.383530,53.994331 
	C30.528067,53.995018 31.291101,53.995220 32.178131,54.317871 
	C32.302876,55.097317 32.303623,55.554317 32.304371,56.011314 
	C31.255432,57.757950 29.623964,59.406624 29.309481,61.276764 
	C28.941532,63.464874 29.721270,65.845970 29.567665,68.573425 
	C26.806328,69.113670 24.480453,69.223839 22.154579,69.334000 
	C26.989389,70.981781 27.361719,74.420441 26.984003,78.285851 
	C26.855953,79.596260 26.340889,81.001419 26.659819,82.186417 
	C26.992218,83.421455 27.919420,84.787041 28.986305,85.401741 
	C29.464678,85.677361 31.210285,84.474380 31.864529,83.569199 
	C33.106926,81.850250 33.977566,79.862595 35.002617,77.986549 
M30.529964,92.114510 
	C30.728769,92.448891 30.927572,92.783279 31.126381,93.117668 
	C31.247458,93.019592 31.483932,92.852989 31.472439,92.833633 
	C31.274973,92.501106 31.046900,92.186760 30.529964,92.114510 
z"/>
<path fill="#3A3A3A" opacity="1.000000" stroke="none" 
	d="
M81.009987,109.230820 
	C86.748856,107.984161 92.483902,106.996429 98.992439,106.054138 
	C100.530457,106.103859 101.294983,106.108116 102.351151,106.282898 
	C104.128906,106.224106 105.615013,105.994797 107.101128,105.765488 
	C106.439049,104.434006 105.877876,103.037003 105.073296,101.798073 
	C104.656982,101.157028 103.809074,100.796272 103.255241,99.887772 
	C103.187271,98.665779 103.020226,97.864899 102.853172,97.064018 
	C106.441994,96.916229 108.763985,95.264725 109.443466,91.591263 
	C110.272278,87.110596 111.539375,82.668343 111.893723,78.152733 
	C112.401505,71.681747 112.254906,65.159401 112.185280,57.999592 
	C111.977760,56.888016 111.972664,56.435833 111.975266,55.737984 
	C111.982956,55.492313 111.996239,55.000916 112.287491,55.090130 
	C113.387466,55.786503 114.196190,56.393658 115.004913,57.000813 
	C114.995552,64.379074 116.420860,72.140953 114.579018,79.029236 
	C112.683701,86.117569 116.663406,93.496704 112.351387,100.097260 
	C111.873268,100.829132 112.508133,102.288109 112.830170,103.710960 
	C113.019203,104.755348 113.004883,105.498642 112.625816,106.644379 
	C110.169632,109.028999 108.078194,111.011185 105.986748,112.993370 
	C105.986748,112.993370 105.493370,112.994957 105.246689,112.997025 
	C104.173447,113.203255 103.346901,113.407433 102.259613,113.800911 
	C101.554771,113.991554 101.110649,113.992889 100.333443,113.995071 
	C98.179070,113.562798 96.357780,113.129677 94.268066,112.846123 
	C93.250641,112.994209 92.501648,112.992729 91.378235,112.989204 
	C87.939018,112.016243 84.874222,111.045341 81.405785,110.041031 
	C81.003479,109.834991 81.004822,109.662361 81.009987,109.230820 
z"/>
<path fill="#474642" opacity="1.000000" stroke="none" 
	d="
M26.959045,104.998955 
	C32.338261,103.913925 28.759880,99.595161 30.046408,96.585098 
	C32.698395,97.499359 34.689579,91.949402 38.075787,96.461563 
	C38.128082,100.050156 38.099796,103.008469 38.071507,105.966782 
	C34.004421,106.284782 29.937336,106.602783 25.574406,106.678986 
	C25.838722,105.957771 26.398884,105.478363 26.959045,104.998955 
z"/>
<path fill="#5A5545" opacity="1.000000" stroke="none" 
	d="
M27.096924,104.680984 
	C26.398884,105.478363 25.838722,105.957771 25.113985,106.659271 
	C23.588137,106.898972 22.226864,106.916588 20.306286,106.638718 
	C19.447924,105.538605 19.148867,104.733971 18.849810,103.929344 
	C18.905485,101.596878 18.961163,99.264420 19.422527,96.465820 
	C20.567068,95.932289 21.305916,95.864899 22.044764,95.797501 
	C23.128183,96.116096 24.211601,96.434700 25.617924,97.139847 
	C25.940826,97.526405 25.967253,97.997154 25.967253,97.997154 
	C25.962538,98.461906 25.957823,98.926666 25.762154,99.882584 
	C25.482992,100.827248 25.394783,101.280739 25.306574,101.734238 
	C25.485619,101.758415 25.664663,101.782593 25.843708,101.806778 
	C25.870832,101.225975 25.897955,100.645172 25.925079,100.064369 
	C26.361654,101.497246 26.798227,102.930130 27.096924,104.680984 
z"/>
<path fill="#B9A35C" opacity="1.000000" stroke="none" 
	d="
M38.359039,105.978790 
	C38.099796,103.008469 38.128082,100.050156 38.315899,96.682083 
	C38.819649,96.259590 39.163872,96.246872 39.758217,96.164612 
	C41.209721,96.347145 42.411106,96.599228 44.854530,97.111916 
	C42.748226,97.902039 41.815311,98.251999 41.790207,98.261414 
	C41.028355,100.985901 40.442104,103.082413 39.824570,105.534645 
	C39.411049,105.923851 39.028809,105.957336 38.359039,105.978790 
z"/>
<path fill="#474642" opacity="1.000000" stroke="none" 
	d="
M21.974548,95.463692 
	C21.305916,95.864899 20.567068,95.932289 19.461178,96.030045 
	C18.778376,95.252914 18.462616,94.445427 18.089069,93.319221 
	C19.322298,93.710297 20.613316,94.420090 21.974548,95.463692 
z"/>
<path fill="#474642" opacity="1.000000" stroke="none" 
	d="
M18.594917,104.073334 
	C19.148867,104.733971 19.447924,105.538605 19.897087,106.625763 
	C18.308628,106.753242 16.581934,106.590675 18.594917,104.073334 
z"/>
<path fill="#333333" opacity="1.000000" stroke="none" 
	d="
M106.345703,112.922394 
	C108.078194,111.011185 110.169632,109.028999 112.622795,107.016319 
	C112.397308,108.443459 111.810104,109.901093 111.111031,111.679367 
	C109.567665,112.283806 108.136169,112.567612 106.345703,112.922394 
z"/>
<path fill="#3D3D3D" opacity="1.000000" stroke="none" 
	d="
M79.655029,9.054941 
	C80.757225,8.985775 81.503471,8.988434 82.622864,8.989407 
	C87.737892,9.303934 92.479759,9.620149 97.613480,9.964798 
	C99.745888,9.669442 101.486443,9.345653 103.741592,9.323526 
	C107.500847,11.752869 110.745522,13.880548 113.990189,16.008228 
	C113.996437,17.072540 114.002678,18.136852 113.852394,19.864235 
	C113.462723,24.018064 113.229584,27.508821 112.672493,30.834213 
	C111.741257,27.897314 110.642479,25.122610 110.660332,22.355110 
	C110.679466,19.390684 109.871338,17.668571 107.001541,16.998337 
	C107.000031,17.000000 107.002914,16.997471 106.932648,16.762135 
	C106.240585,16.348999 105.618790,16.171204 104.663681,15.994144 
	C103.885948,15.998031 103.441528,16.001179 102.747902,16.003376 
	C102.498703,16.002422 102.000305,15.999740 101.916527,15.676836 
	C100.436928,13.210583 99.127190,10.854103 95.624802,12.998255 
	C94.499840,13.001219 93.749863,13.004051 92.582489,13.002188 
	C83.108543,13.331765 74.051979,13.666039 64.994392,13.627684 
	C64.987892,12.510531 64.982422,11.766006 64.976959,11.021480 
	C69.750999,10.389909 74.525040,9.758338 79.655029,9.054941 
z"/>
<path fill="#383838" opacity="1.000000" stroke="none" 
	d="
M112.996445,30.999578 
	C113.229584,27.508821 113.462723,24.018064 113.854233,20.263351 
	C114.663742,22.269190 115.869080,24.538729 115.870140,26.808826 
	C115.874733,36.677135 115.528488,46.545609 115.157326,56.707417 
	C114.196190,56.393658 113.387466,55.786503 112.372131,54.681347 
	C112.429878,48.463493 112.694229,42.743633 112.968445,36.592644 
	C112.984344,34.440865 112.990402,32.720222 112.996445,30.999578 
z"/>
<path fill="#383838" opacity="1.000000" stroke="none" 
	d="
M113.910950,15.671909 
	C110.745522,13.880548 107.500847,11.752869 104.124825,9.317064 
	C108.686890,8.918975 111.816063,11.261484 113.910950,15.671909 
z"/>
<path fill="#474642" opacity="1.000000" stroke="none" 
	d="
M64.648331,11.022636 
	C64.982422,11.766006 64.987892,12.510531 64.538559,13.627198 
	C62.099293,14.002656 60.111511,14.080735 58.131100,13.992798 
	C54.648262,13.838149 52.769409,15.252561 52.746220,19.146425 
	C49.932705,21.517975 47.392078,23.432833 43.627991,22.588087 
	C42.550640,22.346304 41.188000,23.375742 39.522125,23.866249 
	C36.005833,24.385441 32.923595,24.860670 29.610262,25.130299 
	C30.568312,23.795656 31.737947,22.645123 32.951843,21.543354 
	C34.280006,20.337875 35.649067,19.177460 37.335175,17.794220 
	C40.694935,17.029392 43.820656,16.757219 46.692680,15.756757 
	C47.768845,15.381877 48.254768,13.312591 49.009800,12.015835 
	C51.732910,12.010887 54.456020,12.005938 57.591209,11.998631 
	C58.839821,12.055716 59.676353,12.115157 61.032852,12.024872 
	C62.036694,11.593571 62.520561,11.311997 63.004433,11.030424 
	C63.442856,11.028214 63.881279,11.026004 64.648331,11.022636 
z"/>
<path fill="#3D3D3D" opacity="1.000000" stroke="none" 
	d="
M62.804642,10.901054 
	C62.520561,11.311997 62.036694,11.593571 61.276924,11.938666 
	C61.535633,11.592021 62.070240,11.181852 62.804642,10.901054 
z"/>
<path fill="#464542" opacity="1.000000" stroke="none" 
	d="
M20.998970,46.000610 
	C19.897840,45.680504 18.796711,45.360394 17.349953,45.018490 
	C16.003569,42.352104 14.417538,39.768677 14.133349,37.049206 
	C13.655854,32.479954 13.613390,27.777287 14.156865,23.222502 
	C14.479230,20.520815 16.274897,17.994921 17.704494,15.196594 
	C18.751719,15.002213 19.502563,15.001220 21.072695,14.999846 
	C24.262552,14.999239 26.633125,14.999011 28.832855,15.326283 
	C27.144569,16.113222 25.551622,16.410740 24.129236,17.074022 
	C22.438192,17.862585 20.010706,18.600752 19.435287,19.993914 
	C16.620562,26.808737 15.143497,33.763775 21.068899,40.343102 
	C21.091064,42.456249 21.045017,44.228432 20.998970,46.000610 
z"/>
<path fill="#3B3B3B" opacity="1.000000" stroke="none" 
	d="
M15.718866,80.101517 
	C15.523520,80.601402 15.045263,81.201241 14.285221,81.902786 
	C14.480943,81.403488 14.958449,80.802467 15.718866,80.101517 
z"/>
<path fill="#474642" opacity="1.000000" stroke="none" 
	d="
M29.003698,14.998783 
	C26.633125,14.999011 24.262552,14.999239 21.448135,14.999797 
	C21.927628,13.875430 22.850964,12.750733 23.893032,11.332129 
	C24.754091,11.030528 25.496416,11.022834 26.609570,11.014200 
	C27.889620,11.522727 28.800936,12.472997 29.707716,12.468688 
	C34.825310,12.444372 39.941818,12.190874 45.357628,12.341117 
	C41.436424,13.445022 37.216290,14.223290 32.699364,14.989706 
	C31.269611,14.984830 30.136656,14.991807 29.003698,14.998783 
z"/>
<path fill="#464542" opacity="1.000000" stroke="none" 
	d="
M32.996155,15.001558 
	C37.216290,14.223290 41.436424,13.445022 45.824097,12.343117 
	C46.746132,12.015883 47.500637,12.012286 48.632469,12.012262 
	C48.254768,13.312591 47.768845,15.381877 46.692680,15.756757 
	C43.820656,16.757219 40.694935,17.029392 36.985447,17.767128 
	C35.199284,16.962667 34.097717,15.982113 32.996155,15.001558 
z"/>
<path fill="#484747" opacity="1.000000" stroke="none" 
	d="
M92.999886,13.006884 
	C93.749863,13.004051 94.499840,13.001219 95.747620,13.249800 
	C96.496803,14.001335 96.748184,14.501458 97.069511,15.236665 
	C97.759422,15.648496 98.379387,15.825241 99.374466,16.002190 
	C100.499825,16.001507 101.250061,16.000624 102.000305,15.999739 
	C102.000305,15.999740 102.498703,16.002422 102.846268,16.302845 
	C104.128387,17.735943 105.062943,18.868618 105.997437,20.376139 
	C105.997940,21.500673 105.998512,22.250364 105.988464,23.405014 
	C106.318977,28.206852 106.660095,32.603729 106.799774,37.320843 
	C107.065193,41.760468 107.532059,45.879864 107.920013,50.376083 
	C107.660919,52.198883 106.981445,53.810055 107.394890,55.059608 
	C108.597954,58.695591 107.294289,61.425770 104.674911,64.079407 
	C103.383369,64.950897 102.414474,65.743370 100.347206,67.434219 
	C103.267204,67.726433 104.632538,67.863068 106.247589,68.001511 
	C106.497307,68.003334 106.996727,68.008034 106.996727,68.008034 
	C106.896034,69.173737 106.795341,70.339447 106.846527,72.152298 
	C106.997704,73.866135 106.997002,74.932831 106.658569,76.083679 
	C104.985771,76.674820 103.650711,77.181808 102.594788,77.582794 
	C100.626183,75.457031 98.924965,73.620003 97.148476,71.701698 
	C97.148476,70.347893 97.295395,68.617989 97.115868,66.922653 
	C96.805916,63.995781 96.290199,61.090824 95.866486,58.175846 
	C95.566376,56.111271 95.275612,54.045341 94.982468,51.651970 
	C94.984047,50.886074 94.983841,50.448223 95.190598,49.681782 
	C96.273643,45.065536 96.252037,40.281933 98.271797,36.626152 
	C100.400688,32.772858 98.998940,32.450832 96.006294,31.591732 
	C96.006317,30.139635 96.009430,29.083769 96.310440,27.890604 
	C98.839050,24.248753 96.938873,22.662113 93.768959,21.729519 
	C90.795425,20.854702 88.005211,19.843985 88.344940,15.976665 
	C90.126953,14.970062 91.563423,13.988473 92.999886,13.006884 
z"/>
<path fill="#434343" opacity="1.000000" stroke="none" 
	d="
M106.996292,75.999512 
	C106.997002,74.932831 106.997704,73.866135 106.998444,72.399414 
	C107.773346,72.514969 109.251266,73.087082 109.215050,73.537437 
	C108.824181,78.398300 108.601646,83.337654 107.470284,88.048332 
	C106.845116,90.651352 104.811333,93.109955 101.127426,92.190781 
	C93.650291,90.325150 86.150032,88.552223 79.722923,86.998245 
	C82.987045,83.066963 86.451401,78.894516 89.950348,74.353088 
	C89.984955,73.984108 89.995476,73.963463 90.284042,73.866051 
	C93.120743,74.564369 95.668877,75.360107 97.546364,75.946404 
	C98.979286,77.753731 100.791031,80.498474 101.090172,80.342491 
	C103.231506,79.225883 105.064987,77.518906 106.996292,75.999512 
z"/>
<path fill="#E3CA6E" opacity="1.000000" stroke="none" 
	d="
M32.459900,56.378769 
	C32.303623,55.554317 32.302876,55.097317 32.235626,53.860577 
	C31.824671,47.751949 31.480221,42.423061 31.522366,37.059097 
	C32.685501,36.999626 33.462040,36.975235 34.349556,37.343559 
	C34.876148,41.318203 35.291763,44.900127 35.707378,48.482052 
	C36.241402,48.469433 36.775425,48.456814 37.309448,48.444191 
	C37.477356,46.297897 37.645264,44.151604 38.187958,42.005016 
	C39.311565,42.003830 40.060390,42.002937 40.885208,42.437328 
	C41.347023,47.675148 41.624714,52.490475 42.190056,57.271786 
	C42.343067,58.565887 43.366497,59.757076 44.204689,61.194870 
	C44.676365,61.917343 44.933758,62.440445 45.114632,63.259415 
	C44.731892,64.075851 44.425663,64.596420 43.843945,64.863007 
	C42.187904,64.086311 40.807354,63.563610 39.325829,62.665844 
	C38.704304,58.287773 38.183758,54.284763 37.548531,49.399826 
	C36.651718,50.865879 35.878803,51.540077 35.902779,52.184635 
	C36.074589,56.803513 36.536728,61.414234 36.613346,66.032417 
	C36.636566,67.432098 39.569759,70.492607 34.937122,70.117157 
	C34.163223,65.660179 33.389324,61.203197 32.459900,56.378769 
z"/>
<path fill="#4F472F" opacity="1.000000" stroke="none" 
	d="
M34.977222,70.477478 
	C39.569759,70.492607 36.636566,67.432098 36.613346,66.032417 
	C36.536728,61.414234 36.074589,56.803513 35.902779,52.184635 
	C35.878803,51.540077 36.651718,50.865879 37.548531,49.399826 
	C38.183758,54.284763 38.704304,58.287773 39.313560,63.047043 
	C39.873405,65.228073 40.344540,66.652832 40.873734,68.424088 
	C42.940086,70.534096 44.948372,72.297623 46.869797,74.316620 
	C47.242081,75.321854 47.701221,76.071594 48.081612,76.881859 
	C48.002861,76.942375 48.168591,76.836311 48.295315,77.090004 
	C48.908195,77.606781 49.394352,77.869873 49.906288,78.128738 
	C49.932068,78.124519 49.873070,78.151093 49.877686,78.429153 
	C49.942558,79.072952 50.002811,79.438683 50.047508,80.205185 
	C50.016949,81.408379 50.001953,82.210800 49.986954,83.013222 
	C43.981441,80.203468 36.878010,78.743599 34.977222,70.477478 
z"/>
<path fill="#48412D" opacity="1.000000" stroke="none" 
	d="
M82.021286,79.006386 
	C78.738350,80.887802 75.455421,82.769226 71.934479,84.787048 
	C71.934479,83.562775 71.934479,82.088844 71.967850,80.068085 
	C72.001228,79.521248 72.072906,79.148735 72.302231,79.119339 
	C72.531548,79.089951 72.994003,79.091759 73.148239,79.261589 
	C73.900841,79.160217 74.499214,78.889015 75.383530,78.451233 
	C76.469055,77.538895 77.268639,76.793137 78.310837,75.892258 
	C79.066689,75.173950 79.579918,74.610748 80.363167,73.871399 
	C81.413895,72.462868 82.194611,71.230499 82.994949,69.730682 
	C82.970398,69.289986 82.926239,69.116745 83.065720,68.623367 
	C84.098572,64.530319 84.947784,60.757412 85.845497,56.560081 
	C85.857498,54.431408 85.821014,52.727158 85.873535,50.692459 
	C86.034531,49.911751 86.106522,49.461494 86.510635,49.007465 
	C87.507011,49.005817 88.171272,49.007946 88.887131,49.448048 
	C88.311890,56.895298 87.685066,63.904568 86.965630,71.248596 
	C85.255775,74.057693 83.638535,76.532043 82.021286,79.006386 
z"/>
<path fill="#444444" opacity="1.000000" stroke="none" 
	d="
M34.973129,77.626190 
	C33.977566,79.862595 33.106926,81.850250 31.864529,83.569199 
	C31.210285,84.474380 29.464678,85.677361 28.986305,85.401741 
	C27.919420,84.787041 26.992218,83.421455 26.659819,82.186417 
	C26.340889,81.001419 26.855953,79.596260 26.984003,78.285851 
	C27.361719,74.420441 26.989389,70.981781 22.154579,69.334000 
	C24.480453,69.223839 26.806328,69.113670 29.567219,69.005875 
	C31.649372,71.760765 33.296509,74.513298 34.973129,77.626190 
z"/>
<path fill="#434343" opacity="1.000000" stroke="none" 
	d="
M107.349030,67.899750 
	C106.996727,68.008034 106.497307,68.003334 106.109436,67.683746 
	C105.480240,66.242905 105.238899,65.121643 104.997559,64.000381 
	C107.294289,61.425770 108.597954,58.695591 107.394890,55.059608 
	C106.981445,53.810055 107.660919,52.198883 108.171158,50.252556 
	C109.000809,49.499638 109.500404,49.247070 110.138283,49.317154 
	C110.840233,51.754421 111.403908,53.869038 111.967575,55.983650 
	C111.972664,56.435833 111.977760,56.888016 111.982834,57.679829 
	C111.324173,59.804840 110.740768,61.622883 109.984184,63.365749 
	C109.324677,64.885025 108.469849,66.319511 107.349030,67.899750 
z"/>
<path fill="#C29833" opacity="1.000000" stroke="none" 
	d="
M67.989906,81.853348 
	C64.351692,86.756699 60.148685,86.165771 55.358940,82.787125 
	C55.024818,82.456818 54.919956,82.122116 54.918636,81.775352 
	C54.921906,80.966995 54.926491,80.505394 55.319481,80.186325 
	C59.801891,80.837013 63.895901,81.345177 67.989906,81.853348 
z"/>
<path fill="#C7A140" opacity="1.000000" stroke="none" 
	d="
M68.277878,81.715279 
	C63.895901,81.345177 59.801891,80.837013 55.192612,79.942810 
	C54.410393,79.078499 54.143440,78.600220 54.155334,78.090797 
	C54.620132,78.039413 54.806084,78.019180 55.415474,78.008209 
	C61.230305,78.016151 66.621704,78.014832 72.027573,78.297348 
	C72.052338,78.770370 72.062622,78.959549 72.072906,79.148735 
	C72.072906,79.148735 72.001228,79.521248 71.965210,79.707771 
	C70.808075,80.455269 69.686966,81.016235 68.277878,81.715279 
z"/>
<path fill="#B9B9B9" opacity="1.000000" stroke="none" 
	d="
M89.515015,101.867157 
	C88.887093,99.969940 88.265114,98.471123 87.507088,96.644432 
	C89.620995,96.644432 91.653725,96.644432 93.421875,96.644432 
	C92.541046,99.808250 91.704147,102.814278 90.867249,105.820297 
	C90.606697,105.820038 90.346138,105.819771 90.085587,105.819511 
	C89.897377,104.634857 89.709167,103.450195 89.515015,101.867157 
z"/>
<path fill="#524C39" opacity="1.000000" stroke="none" 
	d="
M82.339645,78.867073 
	C83.638535,76.532043 85.255775,74.057693 87.332352,71.259697 
	C88.898666,68.955582 90.005638,66.975113 91.282310,65.285385 
	C90.966507,68.371910 90.480988,71.167686 89.995468,73.963463 
	C89.995476,73.963463 89.984955,73.984108 89.972641,73.990097 
	C87.526222,75.573318 85.092117,77.150536 82.339645,78.867073 
z"/>
<path fill="#626262" opacity="1.000000" stroke="none" 
	d="
M102.059509,106.112381 
	C101.294983,106.108116 100.530457,106.103859 99.386627,106.046799 
	C98.705627,104.271446 98.403923,102.548904 98.365723,100.490189 
	C99.120186,99.755920 99.611130,99.357819 100.102074,98.959717 
	C100.102074,98.959717 100.506462,98.947472 100.844559,99.288025 
	C101.489662,99.993996 101.796661,100.359421 102.010201,101.006332 
	C101.964333,102.896004 102.011925,104.504189 102.059509,106.112381 
z"/>
<path fill="#464030" opacity="1.000000" stroke="none" 
	d="
M54.919956,82.122116 
	C54.919956,82.122116 55.024818,82.456818 55.059166,82.628853 
	C53.938389,83.241234 52.783260,83.681587 51.162838,83.879379 
	C50.485710,83.399506 50.249516,83.189575 49.988964,83.007050 
	C49.988964,83.007050 49.998665,83.000160 49.992809,83.006691 
	C50.001953,82.210800 50.016949,81.408379 50.366196,80.327148 
	C52.106945,80.739601 53.513451,81.430855 54.919956,82.122116 
z"/>
<path fill="#BEBEBE" opacity="1.000000" stroke="none" 
	d="
M99.858871,98.740906 
	C99.611130,99.357819 99.120186,99.755920 98.292534,100.122955 
	C98.039436,99.278534 98.123039,98.465195 98.206642,97.651848 
	C98.676315,97.941933 99.145988,98.232010 99.858871,98.740906 
z"/>
<path fill="#B8B8B8" opacity="1.000000" stroke="none" 
	d="
M102.103653,100.724846 
	C101.796661,100.359421 101.489662,99.993996 101.046661,99.296600 
	C101.387665,98.403885 101.864662,97.843140 102.597412,97.173203 
	C103.020226,97.864899 103.187271,98.665779 103.000984,100.014183 
	C102.466316,100.616089 102.284981,100.670471 102.103653,100.724846 
z"/>
<path fill="#4F472F" opacity="1.000000" stroke="none" 
	d="
M50.017776,83.181946 
	C50.249516,83.189575 50.485710,83.399506 50.845497,83.822433 
	C50.677826,83.790970 50.362206,83.573906 50.017776,83.181946 
z"/>
<path fill="#48412D" opacity="1.000000" stroke="none" 
	d="
M69.507339,86.506409 
	C69.487465,86.513504 69.527214,86.499306 69.507339,86.506409 
z"/>
<path fill="#474642" opacity="1.000000" stroke="none" 
	d="
M31.135769,37.094177 
	C31.480221,42.423061 31.824671,47.751949 32.111626,53.538128 
	C31.291101,53.995220 30.528067,53.995018 29.380384,53.614563 
	C30.361744,48.593967 25.019333,50.361702 23.998865,48.001034 
	C23.999992,48.000000 24.000610,47.999302 24.348843,47.898853 
	C29.539738,44.095829 27.916393,39.007587 27.521063,34.236214 
	C27.283396,31.367720 25.834305,28.253901 29.884235,27.032194 
	C30.181845,28.381752 30.407557,29.417767 30.604574,30.860840 
	C30.762512,33.209991 30.949141,35.152084 31.135769,37.094177 
z"/>
<path fill="#464542" opacity="1.000000" stroke="none" 
	d="
M23.997738,48.002068 
	C25.019333,50.361702 30.361744,48.593967 28.998882,53.614082 
	C26.404144,51.846642 21.611729,52.483246 21.322258,47.498169 
	C22.386505,47.507675 23.192122,47.754871 23.997738,48.002068 
z"/>
<path fill="#474642" opacity="1.000000" stroke="none" 
	d="
M23.998865,48.001034 
	C23.192122,47.754871 22.386505,47.507675 21.291534,47.130329 
	C21.002182,47.000175 21.000340,46.500385 20.999655,46.250496 
	C21.045017,44.228432 21.091064,42.456249 21.407063,40.428513 
	C26.178671,41.675179 24.173082,45.109360 24.000610,47.999302 
	C24.000610,47.999302 23.999992,48.000000 23.998865,48.001034 
z"/>
<path fill="#474642" opacity="1.000000" stroke="none" 
	d="
M30.677753,91.991463 
	C31.046900,92.186760 31.274973,92.501106 31.472439,92.833633 
	C31.483932,92.852989 31.247458,93.019592 31.126377,93.117661 
	C30.927572,92.783279 30.728769,92.448891 30.677753,91.991463 
z"/>
<path fill="#474642" opacity="1.000000" stroke="none" 
	d="
M26.053621,97.886276 
	C25.967253,97.997154 25.940826,97.526405 25.923534,97.291740 
	C26.168907,97.243774 26.246824,97.483215 26.053621,97.886276 
z"/>
<path fill="#474642" opacity="1.000000" stroke="none" 
	d="
M111.975266,55.737984 
	C111.403908,53.869038 110.840233,51.754421 110.138718,48.918346 
	C110.001175,47.132828 110.001472,46.068775 110.184547,44.787132 
	C110.578644,44.047352 110.789963,43.525162 111.002892,42.606407 
	C111.655861,40.481155 112.307220,38.752464 112.958588,37.023777 
	C112.694229,42.743633 112.429878,48.463493 112.080879,54.592133 
	C111.996239,55.000916 111.982956,55.492313 111.975266,55.737984 
z"/>
<path fill="#474642" opacity="1.000000" stroke="none" 
	d="
M102.010201,101.006332 
	C102.284981,100.670471 102.466316,100.616089 102.901901,100.435303 
	C103.809074,100.796272 104.656982,101.157028 105.073296,101.798073 
	C105.877876,103.037003 106.439049,104.434006 107.101128,105.765488 
	C105.615013,105.994797 104.128906,106.224106 102.351151,106.282898 
	C102.011925,104.504189 101.964333,102.896004 102.010201,101.006332 
z"/>
<path fill="#A79558" opacity="1.000000" stroke="none" 
	d="
M25.962086,100.039444 
	C25.897955,100.645172 25.870832,101.225975 25.843708,101.806778 
	C25.664663,101.782593 25.485619,101.758415 25.306574,101.734238 
	C25.394783,101.280739 25.482992,100.827248 25.761070,100.231171 
	C25.950939,100.088593 25.999094,100.014519 25.962086,100.039444 
z"/>
<path fill="#464542" opacity="1.000000" stroke="none" 
	d="
M92.582489,13.002188 
	C91.563423,13.988473 90.126953,14.970062 88.011787,15.976475 
	C86.888870,16.001495 86.444649,16.001694 85.724030,16.068764 
	C84.964401,16.423876 84.481186,16.712116 83.577499,17.000399 
	C80.476074,17.290340 77.126190,15.974689 75.662445,20.133259 
	C73.900665,20.515596 72.471458,20.749060 70.757286,20.776241 
	C67.327850,19.721153 64.183395,18.872345 60.702698,17.953127 
	C58.916111,18.230196 57.465759,18.577675 55.638859,18.927896 
	C54.509312,18.926468 53.756313,18.922300 53.003315,18.918133 
	C52.769409,15.252561 54.648262,13.838149 58.131100,13.992798 
	C60.111511,14.080735 62.099293,14.002656 64.539589,13.999825 
	C74.051979,13.666039 83.108543,13.331765 92.582489,13.002188 
z"/>
<path fill="#424242" opacity="1.000000" stroke="none" 
	d="
M112.968445,36.592644 
	C112.307220,38.752464 111.655861,40.481155 110.751984,42.482239 
	C109.999382,42.503002 109.499298,42.251377 108.919800,41.719246 
	C108.560768,39.959412 108.281151,38.480087 108.294067,36.858089 
	C108.832390,31.934540 111.056259,26.780481 105.999084,23.000053 
	C105.998512,22.250364 105.997940,21.500673 106.188782,20.115633 
	C106.587807,18.652412 106.795433,17.824545 107.003052,16.996675 
	C109.871338,17.668571 110.679466,19.390684 110.660332,22.355110 
	C110.642479,25.122610 111.741257,27.897314 112.672501,30.834213 
	C112.990402,32.720222 112.984344,34.440865 112.968445,36.592644 
z"/>
<path fill="#424242" opacity="1.000000" stroke="none" 
	d="
M101.916527,15.676835 
	C101.250061,16.000624 100.499825,16.001507 99.157631,15.818792 
	C98.043640,15.423988 97.521606,15.212785 96.999565,15.001581 
	C96.748184,14.501458 96.496803,14.001335 96.122604,13.249668 
	C99.127190,10.854103 100.436928,13.210583 101.916527,15.676835 
z"/>
<path fill="#434343" opacity="1.000000" stroke="none" 
	d="
M107.001541,16.998337 
	C106.795433,17.824545 106.587807,18.652412 106.188843,19.740788 
	C105.062943,18.868618 104.128387,17.735943 103.095467,16.303797 
	C103.441528,16.001179 103.885948,15.998031 104.881149,16.178383 
	C105.955589,16.573748 106.479248,16.785610 107.002914,16.997471 
	C107.002914,16.997471 107.000031,17.000000 107.001541,16.998337 
z"/>
<path fill="#424242" opacity="1.000000" stroke="none" 
	d="
M106.932648,16.762135 
	C106.479248,16.785610 105.955589,16.573748 105.214462,16.177647 
	C105.618790,16.171204 106.240585,16.348999 106.932648,16.762135 
z"/>
<path fill="#484847" opacity="1.000000" stroke="none" 
	d="
M24.348843,47.898853 
	C24.173082,45.109360 26.178671,41.675179 21.338852,40.087540 
	C15.143497,33.763775 16.620562,26.808737 19.435287,19.993914 
	C20.010706,18.600752 22.438192,17.862585 24.129236,17.074022 
	C25.551622,16.410740 27.144569,16.113222 28.832855,15.326283 
	C30.136656,14.991807 31.269611,14.984830 32.699364,14.989706 
	C34.097717,15.982113 35.199284,16.962667 36.650574,17.970314 
	C35.649067,19.177460 34.280006,20.337875 32.951843,21.543354 
	C31.737947,22.645123 30.568312,23.795656 29.643524,25.360479 
	C29.930351,26.109350 29.898502,26.416813 29.812334,26.718651 
	C25.834305,28.253901 27.283396,31.367720 27.521063,34.236214 
	C27.916393,39.007587 29.539738,44.095829 24.348843,47.898853 
z"/>
<path fill="#5F5534" opacity="1.000000" stroke="none" 
	d="
M52.746220,19.146425 
	C53.756313,18.922300 54.509312,18.926468 55.776398,19.121294 
	C56.493732,19.554600 56.723343,19.769012 56.979469,20.316692 
	C56.977093,21.401180 56.974564,22.124163 56.725723,23.015144 
	C53.989075,24.821404 51.498734,26.459665 48.667248,27.964363 
	C45.527107,28.258408 42.529903,28.222075 40.008453,29.299320 
	C38.642742,29.882795 38.088264,32.365074 37.132393,34.345562 
	C37.185196,35.165081 37.273438,35.629845 37.325104,36.466904 
	C37.463409,38.561237 37.638290,40.283272 37.813168,42.005310 
	C37.645264,44.151604 37.477356,46.297897 37.309448,48.444191 
	C36.775425,48.456814 36.241402,48.469433 35.707378,48.482052 
	C35.291763,44.900127 34.876148,41.318203 34.401863,36.905628 
	C34.157921,33.745312 33.972652,31.415644 34.065399,28.851152 
	C37.047924,27.383179 39.752430,26.150026 43.605377,24.393225 
	C41.502922,24.064285 40.729549,23.943287 39.956177,23.822289 
	C41.188000,23.375742 42.550640,22.346304 43.627991,22.588087 
	C47.392078,23.432833 49.932705,21.517975 52.746220,19.146425 
z"/>
<path fill="#C6A13F" opacity="1.000000" stroke="none" 
	d="
M39.522125,23.866249 
	C40.729549,23.943287 41.502922,24.064285 43.605377,24.393225 
	C39.752430,26.150026 37.047924,27.383179 33.712234,28.874783 
	C32.265118,29.573418 31.449192,30.013599 30.633266,30.453781 
	C30.407557,29.417767 30.181845,28.381752 29.884235,27.032194 
	C29.898502,26.416813 29.930351,26.109350 29.874619,25.566078 
	C32.923595,24.860670 36.005833,24.385441 39.522125,23.866249 
z"/>
<path fill="#474642" opacity="1.000000" stroke="none" 
	d="
M90.284042,73.866051 
	C90.480988,71.167686 90.966507,68.371910 91.316498,64.953217 
	C91.284370,63.897739 91.387772,63.465176 91.753983,62.835728 
	C91.999138,60.749180 91.981499,58.859520 92.012177,56.556446 
	C92.214577,54.766445 92.368652,53.389862 92.830246,52.013401 
	C93.752068,52.002357 94.366371,51.991188 94.980675,51.980019 
	C95.275612,54.045341 95.566376,56.111271 95.866486,58.175846 
	C96.290199,61.090824 96.805916,63.995781 97.115868,66.922653 
	C97.295395,68.617989 97.148476,70.347893 97.148476,71.701698 
	C98.924965,73.620003 100.626183,75.457031 102.594788,77.582794 
	C103.650711,77.181808 104.985771,76.674820 106.658569,76.083672 
	C105.064987,77.518906 103.231506,79.225883 101.090172,80.342491 
	C100.791031,80.498474 98.979286,77.753731 97.546364,75.946404 
	C95.668877,75.360107 93.120743,74.564369 90.284042,73.866051 
z"/>
<path fill="#474642" opacity="1.000000" stroke="none" 
	d="
M75.995033,19.984385 
	C77.126190,15.974689 80.476074,17.290340 83.668747,17.237007 
	C84.787125,16.983013 85.393776,16.492453 86.000435,16.001892 
	C86.444649,16.001694 86.888870,16.001495 87.666237,16.001488 
	C88.005211,19.843985 90.795425,20.854702 93.768959,21.729519 
	C96.938873,22.662113 98.839050,24.248753 96.068008,27.878376 
	C95.527679,28.003450 95.042976,27.982761 95.001556,27.595409 
	C93.819473,26.203894 92.809746,24.588888 91.513390,24.311008 
	C87.744713,23.503181 83.861206,23.231035 79.926491,22.515461 
	C78.551834,21.516230 77.273438,20.750307 75.995033,19.984385 
z"/>
<path fill="#474642" opacity="1.000000" stroke="none" 
	d="
M96.009384,31.987967 
	C98.998940,32.450832 100.400688,32.772858 98.271797,36.626152 
	C96.252037,40.281933 96.273643,45.065536 95.000656,49.413460 
	C94.044159,48.295570 93.484581,47.117409 92.972237,45.560425 
	C93.197441,43.168049 93.375397,41.154499 93.683487,38.743599 
	C93.940567,37.246807 94.067513,36.147366 94.474792,34.903091 
	C95.173210,33.834827 95.591301,32.911400 96.009384,31.987967 
z"/>
<path fill="#434343" opacity="1.000000" stroke="none" 
	d="
M105.988464,23.405014 
	C111.056259,26.780481 108.832390,31.934540 108.043983,36.857952 
	C107.334648,37.000530 107.167931,37.000568 107.001221,37.000610 
	C106.660095,32.603729 106.318977,28.206852 105.988464,23.405014 
z"/>
<path fill="#464542" opacity="1.000000" stroke="none" 
	d="
M106.799774,37.320843 
	C107.167931,37.000568 107.334648,37.000530 107.751450,37.000626 
	C108.281151,38.480087 108.560768,39.959412 108.826233,41.940742 
	C109.208649,43.296734 109.605209,44.150726 110.001770,45.004723 
	C110.001472,46.068775 110.001175,47.132828 110.000435,48.595695 
	C109.500404,49.247070 109.000809,49.499638 108.250069,49.875732 
	C107.532059,45.879864 107.065193,41.760468 106.799774,37.320843 
z"/>
<path fill="#524C39" opacity="1.000000" stroke="none" 
	d="
M92.924995,45.939247 
	C93.484581,47.117409 94.044159,48.295570 94.793686,49.742058 
	C94.983841,50.448223 94.984047,50.886074 94.982468,51.651970 
	C94.366371,51.991188 93.752068,52.002357 92.690002,51.628284 
	C92.469826,49.475109 92.697411,47.707180 92.924995,45.939247 
z"/>
<path fill="#474642" opacity="1.000000" stroke="none" 
	d="
M104.674911,64.079407 
	C105.238899,65.121643 105.480240,66.242905 105.859718,67.681931 
	C104.632538,67.863068 103.267204,67.726433 100.347206,67.434219 
	C102.414474,65.743370 103.383369,64.950897 104.674911,64.079407 
z"/>
<path fill="#524C39" opacity="1.000000" stroke="none" 
	d="
M96.006294,31.591732 
	C95.591301,32.911400 95.173210,33.834827 94.433441,34.504601 
	C94.148178,32.929119 94.184578,31.607294 94.364311,30.014511 
	C94.686089,29.156622 94.864532,28.569691 95.042976,27.982761 
	C95.042976,27.982761 95.527679,28.003450 95.770111,28.015678 
	C96.009430,29.083769 96.006317,30.139635 96.006294,31.591732 
z"/>
<path fill="#464542" opacity="1.000000" stroke="none" 
	d="
M97.069511,15.236666 
	C97.521606,15.212785 98.043640,15.423988 98.782516,15.818590 
	C98.379387,15.825241 97.759422,15.648496 97.069511,15.236666 
z"/>
<path fill="#F0D87A" opacity="1.000000" stroke="none" 
	d="
M44.119438,65.116989 
	C44.425663,64.596420 44.731892,64.075851 45.564301,63.270546 
	C57.706120,62.984680 69.321754,62.983551 80.926338,63.315727 
	C80.257591,64.756073 79.599892,65.863121 78.497261,66.978836 
	C67.379524,67.314171 56.706718,67.640831 45.836487,67.745621 
	C45.132515,66.721497 44.625973,65.919243 44.119438,65.116989 
z"/>
<path fill="#F1DC83" opacity="1.000000" stroke="none" 
	d="
M80.937393,62.982426 
	C69.321754,62.983551 57.706120,62.984680 45.640816,62.974674 
	C44.933758,62.440445 44.676365,61.917343 44.133003,60.860485 
	C43.922543,59.880188 43.998051,59.433647 44.491028,59.003525 
	C48.847786,59.207432 52.799145,59.684589 56.723801,59.521015 
	C64.463966,59.198425 72.189331,58.520683 79.945946,58.356270 
	C80.293175,60.142616 80.615288,61.562523 80.937393,62.982426 
z"/>
<path fill="#504A35" opacity="1.000000" stroke="none" 
	d="
M44.073559,58.987110 
	C43.998051,59.433647 43.922543,59.880188 43.918724,60.661110 
	C43.366497,59.757076 42.343067,58.565887 42.190056,57.271786 
	C41.624714,52.490475 41.347023,47.675148 40.781242,42.060928 
	C40.336075,39.191235 40.070869,37.133217 39.875504,34.712494 
	C40.648865,33.897598 41.352383,33.445415 42.080437,33.311283 
	C42.192719,34.472248 42.280472,35.315166 42.336037,36.521767 
	C42.356796,37.859135 42.409748,38.832821 42.306267,40.143269 
	C42.560417,43.351990 42.971004,46.223949 43.348515,49.544895 
	C43.568146,52.991627 43.820854,55.989368 44.073559,58.987110 
z"/>
<path fill="#D3B455" opacity="1.000000" stroke="none" 
	d="
M30.604574,30.860840 
	C31.449192,30.013599 32.265118,29.573418 33.434212,29.109604 
	C33.972652,31.415644 34.157921,33.745312 34.290886,36.512909 
	C33.462040,36.975235 32.685501,36.999626 31.522366,37.059097 
	C30.949141,35.152084 30.762512,33.209991 30.604574,30.860840 
z"/>
<path fill="#E5CB6D" opacity="1.000000" stroke="none" 
	d="
M43.843941,64.863007 
	C44.625973,65.919243 45.132515,66.721497 45.615677,67.934685 
	C45.060989,68.561607 44.529675,68.777596 43.716957,68.807983 
	C42.562260,68.440796 41.688969,68.259193 40.815674,68.077591 
	C40.344540,66.652832 39.873405,65.228073 39.414539,63.422112 
	C40.807354,63.563610 42.187904,64.086311 43.843941,64.863007 
z"/>
<path fill="#E5CB6D" opacity="1.000000" stroke="none" 
	d="
M39.805660,35.075203 
	C40.070869,37.133217 40.336075,39.191235 40.705246,41.625648 
	C40.060390,42.002937 39.311565,42.003830 38.187958,42.005016 
	C37.638290,40.283272 37.463409,38.561237 37.569542,36.399834 
	C38.246937,35.655235 38.643322,35.350002 39.231373,35.047855 
	C39.423042,35.050945 39.805660,35.075203 39.805660,35.075203 
z"/>
<path fill="#D5B553" opacity="1.000000" stroke="none" 
	d="
M40.873734,68.424088 
	C41.688969,68.259193 42.562260,68.440796 43.964870,69.014557 
	C45.981075,70.296516 47.467960,71.186317 49.156429,72.358261 
	C55.174889,76.093582 61.101086,73.870544 67.332794,72.982529 
	C68.105537,72.985596 68.547112,72.986320 69.421082,72.997467 
	C71.587112,73.021194 73.320755,73.034492 74.897659,73.307266 
	C73.872498,74.402985 73.004082,75.239227 71.655060,76.056656 
	C67.676521,76.027145 64.158699,75.789948 60.688454,76.094612 
	C58.748867,76.264900 56.888245,77.334557 54.992043,77.998947 
	C54.806084,78.019180 54.620132,78.039413 53.757744,78.061989 
	C52.011898,78.093254 50.942482,78.122177 49.873070,78.151093 
	C49.873070,78.151093 49.932068,78.124519 49.779053,77.875122 
	C49.140224,77.362579 48.654408,77.099442 48.168591,76.836311 
	C48.168591,76.836311 48.002861,76.942375 48.034279,76.570755 
	C47.696018,75.486473 47.326340,74.773804 46.956657,74.061142 
	C44.948372,72.297623 42.940086,70.534096 40.873734,68.424088 
z"/>
<path fill="#9C8036" opacity="1.000000" stroke="none" 
	d="
M49.877686,78.429153 
	C50.942482,78.122177 52.011898,78.093254 53.478897,78.093140 
	C54.143440,78.600220 54.410393,79.078499 54.804207,79.800285 
	C54.926491,80.505394 54.921906,80.966995 54.918636,81.775352 
	C53.513451,81.430855 52.106945,80.739601 50.381752,79.926384 
	C50.002811,79.438683 49.942558,79.072952 49.877686,78.429153 
z"/>
<path fill="#9C8036" opacity="1.000000" stroke="none" 
	d="
M46.869797,74.316620 
	C47.326340,74.773804 47.696018,75.486473 48.113029,76.510239 
	C47.701221,76.071594 47.242081,75.321854 46.869797,74.316620 
z"/>
<path fill="#9C8036" opacity="1.000000" stroke="none" 
	d="
M48.295315,77.090004 
	C48.654408,77.099442 49.140224,77.362579 49.753273,77.879333 
	C49.394352,77.869873 48.908195,77.606781 48.295315,77.090004 
z"/>
<path fill="#544A2F" opacity="1.000000" stroke="none" 
	d="
M75.662445,20.133259 
	C77.273438,20.750307 78.551834,21.516230 79.719574,22.753841 
	C83.452202,25.173365 87.295494,27.121199 91.081421,29.485216 
	C90.802414,32.964863 90.580765,36.028324 90.273254,39.504936 
	C89.736763,42.948746 89.286140,45.979408 88.835526,49.010071 
	C88.171272,49.007946 87.507011,49.005817 86.615448,48.604149 
	C86.554039,43.482212 86.719940,38.759815 86.962585,33.654015 
	C87.092148,28.471968 82.036560,29.884171 79.950287,27.277523 
	C77.201057,23.820633 75.447868,27.162201 73.240372,27.692829 
	C73.136803,27.501608 72.943001,27.112240 72.944504,26.738691 
	C72.311432,24.570936 71.676849,22.776730 71.042267,20.982523 
	C72.471458,20.749060 73.900665,20.515596 75.662445,20.133259 
z"/>
<path fill="#E3CA6E" opacity="1.000000" stroke="none" 
	d="
M88.887123,49.448048 
	C89.286140,45.979408 89.736763,42.948746 90.593323,39.491661 
	C91.850639,39.090473 92.701996,39.115711 93.553360,39.140949 
	C93.375397,41.154499 93.197441,43.168049 92.972237,45.560425 
	C92.697411,47.707180 92.469826,49.475109 92.382484,51.628159 
	C92.368652,53.389862 92.214577,54.766445 91.684334,56.790031 
	C91.369171,59.302227 91.430168,61.167419 91.491173,63.032616 
	C91.387772,63.465176 91.284370,63.897739 91.146790,64.662468 
	C90.005638,66.975113 88.898666,68.955582 87.424973,70.924942 
	C87.685066,63.904568 88.311890,56.895298 88.887123,49.448048 
z"/>
<path fill="#E0C364" opacity="1.000000" stroke="none" 
	d="
M86.885841,34.037422 
	C86.719940,38.759815 86.554039,43.482212 86.283325,48.607922 
	C86.106522,49.461494 86.034531,49.911751 85.552475,50.689415 
	C84.500328,51.011711 83.858253,51.006596 83.143646,50.579025 
	C83.450668,44.790035 83.830231,39.423500 84.544250,34.049828 
	C85.547760,34.040936 86.216805,34.039181 86.885841,34.037422 
z"/>
<path fill="#E0C364" opacity="1.000000" stroke="none" 
	d="
M80.926338,63.315727 
	C80.615288,61.562523 80.293175,60.142616 80.150711,58.154423 
	C80.646278,57.373444 80.962196,57.160751 81.500870,56.869820 
	C81.723625,56.791576 82.195938,56.774357 82.195938,56.774357 
	C82.195938,56.774357 82.651360,56.900726 83.044296,56.919830 
	C84.223816,56.954124 85.010414,56.969315 85.797005,56.984505 
	C84.947784,60.757412 84.098572,64.530319 82.875710,68.445129 
	C81.656418,68.393593 80.810783,68.200165 79.778809,67.850815 
	C79.354919,67.472000 79.138161,67.230423 78.942200,66.970169 
	C79.599892,65.863121 80.257591,64.756073 80.926338,63.315727 
z"/>
<path fill="#B69947" opacity="1.000000" stroke="none" 
	d="
M72.135666,76.075470 
	C73.004082,75.239227 73.872498,74.402985 75.077026,73.148392 
	C75.644180,72.504639 75.832748,72.248016 76.328384,71.942078 
	C77.751999,71.632706 78.826065,71.341438 80.164398,70.852036 
	C81.277557,70.435318 82.126450,70.216728 82.975334,69.998138 
	C82.194611,71.230499 81.413895,72.462868 80.030136,73.882454 
	C78.618721,74.376869 77.810341,74.684067 76.747650,75.133102 
	C75.996033,75.858772 75.498749,76.442581 74.737495,77.158661 
	C73.980354,77.891197 73.487183,78.491478 72.994003,79.091766 
	C72.994003,79.091759 72.531548,79.089951 72.302231,79.119339 
	C72.062622,78.959549 72.052338,78.770370 72.040848,77.973404 
	C72.071655,76.935570 72.103661,76.505524 72.135666,76.075470 
z"/>
<path fill="#F1DC83" opacity="1.000000" stroke="none" 
	d="
M85.845497,56.560081 
	C85.010414,56.969315 84.223816,56.954124 83.132019,56.505806 
	C82.956596,54.382278 83.086388,52.691883 83.216171,51.001480 
	C83.858253,51.006596 84.500328,51.011711 85.463470,51.019867 
	C85.821014,52.727158 85.857498,54.431408 85.845497,56.560081 
z"/>
<path fill="#D0B152" opacity="1.000000" stroke="none" 
	d="
M82.994949,69.730682 
	C82.126450,70.216728 81.277557,70.435318 79.967422,70.715057 
	C79.659172,69.853043 79.812157,68.929886 79.965141,68.006729 
	C80.810783,68.200165 81.656418,68.393593 82.692078,68.765274 
	C82.926239,69.116745 82.970398,69.289986 82.994949,69.730682 
z"/>
<path fill="#937933" opacity="1.000000" stroke="none" 
	d="
M75.001457,77.026398 
	C75.498749,76.442581 75.996033,75.858772 76.898918,75.334305 
	C77.559082,75.611565 77.813660,75.829475 78.068230,76.047379 
	C77.268639,76.793137 76.469055,77.538895 75.358414,78.051643 
	C75.032059,77.554558 75.016754,77.290474 75.001457,77.026398 
z"/>
<path fill="#A68A3D" opacity="1.000000" stroke="none" 
	d="
M78.310837,75.892258 
	C77.813660,75.829475 77.559082,75.611565 77.153244,75.192459 
	C77.810341,74.684067 78.618721,74.376869 79.760124,74.058609 
	C79.579918,74.610748 79.066689,75.173950 78.310837,75.892258 
z"/>
<path fill="#7F682D" opacity="1.000000" stroke="none" 
	d="
M74.737495,77.158661 
	C75.016754,77.290474 75.032059,77.554558 75.072479,78.218224 
	C74.499214,78.889015 73.900841,79.160217 73.148239,79.261597 
	C73.487183,78.491478 73.980354,77.891197 74.737495,77.158661 
z"/>
<path fill="#D4B04B" opacity="1.000000" stroke="none" 
	d="
M71.655060,76.056656 
	C72.103661,76.505524 72.071655,76.935570 72.026375,77.689575 
	C66.621704,78.014832 61.230305,78.016151 55.415474,78.008209 
	C56.888245,77.334557 58.748867,76.264900 60.688454,76.094612 
	C64.158699,75.789948 67.676521,76.027145 71.655060,76.056656 
z"/>
<path fill="#434343" opacity="1.000000" stroke="none" 
	d="
M110.184540,44.787132 
	C109.605209,44.150726 109.208649,43.296734 108.905647,42.221245 
	C109.499298,42.251377 109.999382,42.503002 110.750381,42.878799 
	C110.789963,43.525162 110.578644,44.047352 110.184540,44.787132 
z"/>
<path fill="#6C5C31" opacity="1.000000" stroke="none" 
	d="
M70.757294,20.776241 
	C71.676849,22.776730 72.311432,24.570936 72.644501,26.646877 
	C71.619621,26.514484 70.896255,26.100355 69.907021,25.487545 
	C65.746277,22.772236 62.405628,17.379946 56.972031,22.847147 
	C56.974564,22.124163 56.977093,21.401180 57.302711,20.255377 
	C58.763512,19.229551 59.901222,18.626545 61.038937,18.023539 
	C64.183395,18.872345 67.327850,19.721153 70.757294,20.776241 
z"/>
<path fill="#474642" opacity="1.000000" stroke="none" 
	d="
M60.702698,17.953127 
	C59.901222,18.626545 58.763512,19.229551 57.302559,19.893875 
	C56.723343,19.769012 56.493732,19.554600 56.152946,19.118553 
	C57.465759,18.577675 58.916111,18.230196 60.702698,17.953127 
z"/>
<path fill="#484747" opacity="1.000000" stroke="none" 
	d="
M85.724030,16.068764 
	C85.393776,16.492453 84.787125,16.983013 84.089218,17.236965 
	C84.481186,16.712116 84.964401,16.423876 85.724030,16.068764 
z"/>
<path fill="#D0A63B" opacity="1.000000" stroke="none" 
	d="
M56.725723,23.015144 
	C62.405628,17.379946 65.746277,22.772236 69.625465,25.779312 
	C66.007843,26.740887 62.377819,27.061995 58.812672,27.729580 
	C55.845615,28.285168 52.954758,29.247709 49.694176,30.042660 
	C48.910419,30.064163 48.462631,30.073004 48.115700,29.822851 
	C48.480499,29.075212 48.744446,28.586569 49.008392,28.097925 
	C51.498734,26.459665 53.989075,24.821404 56.725723,23.015144 
z"/>
<path fill="#DAB54B" opacity="1.000000" stroke="none" 
	d="
M48.667248,27.964363 
	C48.744446,28.586569 48.480499,29.075212 48.110382,30.140564 
	C48.001244,31.142603 47.998280,31.567932 47.749603,31.991859 
	C47.503887,31.990458 47.012482,31.985077 46.899078,31.903200 
	C46.500397,31.716211 46.254532,31.782055 45.872559,32.129700 
	C45.158913,32.172287 44.620789,32.104027 43.857735,31.965521 
	C43.115410,32.263714 42.598011,32.632149 42.068569,33.013542 
	C42.056522,33.026497 42.055901,32.993229 42.055901,32.993233 
	C41.352383,33.445415 40.648865,33.897598 39.875504,34.712494 
	C39.805660,35.075203 39.423042,35.050945 39.031380,34.860413 
	C38.149090,34.443520 37.658466,34.217163 37.167839,33.990803 
	C38.088264,32.365074 38.642742,29.882795 40.008453,29.299320 
	C42.529903,28.222075 45.527107,28.258408 48.667248,27.964363 
z"/>
<path fill="#D3B14D" opacity="1.000000" stroke="none" 
	d="
M37.132393,34.345562 
	C37.658466,34.217163 38.149090,34.443520 38.839710,34.857323 
	C38.643322,35.350002 38.246937,35.655235 37.606117,36.027538 
	C37.273438,35.629845 37.185196,35.165081 37.132393,34.345562 
z"/>
<path fill="#524C39" opacity="1.000000" stroke="none" 
	d="
M91.753983,62.835728 
	C91.430168,61.167419 91.369171,59.302227 91.636009,57.203445 
	C91.981499,58.859520 91.999138,60.749180 91.753983,62.835728 
z"/>
<path fill="#C69F3B" opacity="1.000000" stroke="none" 
	d="
M91.138779,29.069033 
	C87.295494,27.121199 83.452202,25.173365 79.815826,22.987150 
	C83.861206,23.231035 87.744713,23.503181 91.513390,24.311008 
	C92.809746,24.588888 93.819473,26.203894 95.001556,27.595409 
	C94.864532,28.569691 94.686089,29.156622 94.106934,29.785843 
	C92.850410,29.575098 91.994591,29.322065 91.138779,29.069033 
z"/>
<path fill="#D0B052" opacity="1.000000" stroke="none" 
	d="
M91.081421,29.485216 
	C91.994591,29.322065 92.850410,29.575098 93.963600,30.056801 
	C94.184578,31.607294 94.148178,32.929119 94.153122,34.649437 
	C94.067513,36.147366 93.940567,37.246807 93.683487,38.743599 
	C92.701996,39.115711 91.850639,39.090473 90.679199,39.078510 
	C90.580765,36.028324 90.802414,32.964863 91.081421,29.485216 
z"/>
<path fill="#E8CE6D" opacity="1.000000" stroke="none" 
	d="
M79.778809,67.850815 
	C79.812157,68.929886 79.659172,69.853043 79.703156,70.913177 
	C78.826065,71.341438 77.751999,71.632706 76.013535,71.750282 
	C73.228989,72.046738 71.108833,72.516891 68.988686,72.987045 
	C68.547112,72.986320 68.105537,72.985596 67.014725,72.780655 
	C60.561935,72.409668 54.758389,72.242897 48.954845,72.076126 
	C47.467960,71.186317 45.981075,70.296516 44.246273,69.200150 
	C44.529675,68.777596 45.060989,68.561607 45.813110,68.156555 
	C56.706718,67.640831 67.379524,67.314171 78.497261,66.978836 
	C79.138161,67.230423 79.354919,67.472000 79.778809,67.850815 
z"/>
<path fill="#F4E28C" opacity="1.000000" stroke="none" 
	d="
M81.278114,56.948067 
	C80.962196,57.160751 80.646278,57.373444 80.125595,57.787979 
	C72.189331,58.520683 64.463966,59.198425 56.723801,59.521015 
	C52.799145,59.684589 48.847786,59.207432 44.491028,59.003525 
	C43.820854,55.989368 43.568146,52.991627 43.871307,49.525772 
	C47.926033,49.177513 51.424885,49.297359 54.667625,49.719162 
	C52.880085,50.875233 51.348663,51.729343 49.817238,52.583454 
	C54.537144,54.336964 57.119362,52.138535 59.665886,49.020309 
	C61.346920,49.130627 62.568375,49.233837 63.561398,49.569332 
	C63.205215,50.226334 62.833397,50.881561 62.985176,51.042267 
	C67.592949,55.920952 74.030533,54.840660 76.132439,48.057457 
	C77.917213,48.678951 79.352875,49.301102 80.959442,50.334129 
	C81.179604,52.812691 81.228859,54.880379 81.278114,56.948067 
z"/>
<path fill="#E4C45E" opacity="1.000000" stroke="none" 
	d="
M44.082664,32.035763 
	C44.620789,32.104027 45.158913,32.172287 46.113407,32.120724 
	C46.529778,32.000896 47.012482,31.985077 47.012482,31.985077 
	C47.012482,31.985077 47.503887,31.990458 48.096413,32.200569 
	C58.795452,32.596085 68.901970,32.781483 79.297394,32.843090 
	C80.387733,32.484737 81.189171,32.250175 81.942963,32.370636 
	C81.873825,34.492851 81.852341,36.260044 81.436584,38.053616 
	C78.637550,38.407349 76.232780,38.734703 73.519470,38.886799 
	C70.477066,38.482693 67.743195,38.253845 64.846947,37.697670 
	C61.950520,37.293705 59.216476,37.217068 56.081516,37.115677 
	C53.797047,37.090988 51.913494,37.091049 49.678986,36.863350 
	C47.008095,36.476425 44.688160,36.317253 42.368225,36.158081 
	C42.280472,35.315166 42.192719,34.472248 42.080437,33.311279 
	C42.055901,32.993229 42.056522,33.026497 42.284184,33.090816 
	C43.035454,32.782013 43.559059,32.408890 44.082664,32.035763 
z"/>
<path fill="#F2DA7C" opacity="1.000000" stroke="none" 
	d="
M54.923737,49.417206 
	C51.424885,49.297359 47.926033,49.177513 43.904388,49.076782 
	C42.971004,46.223949 42.560417,43.351990 42.761913,40.177208 
	C44.891220,39.924278 46.408443,39.974171 47.905968,40.427971 
	C47.219593,47.020931 52.288040,46.614422 56.445415,47.521629 
	C55.704102,48.445095 55.313919,48.931149 54.923737,49.417206 
z"/>
<path fill="#EACC68" opacity="1.000000" stroke="none" 
	d="
M47.925667,40.024059 
	C46.408443,39.974171 44.891220,39.924278 42.918350,39.840446 
	C42.409748,38.832821 42.356796,37.859135 42.336037,36.521767 
	C44.688160,36.317253 47.008095,36.476425 49.588760,37.154709 
	C49.208221,38.457237 48.566944,39.240650 47.925667,40.024059 
z"/>
<path fill="#E4C560" opacity="1.000000" stroke="none" 
	d="
M49.156429,72.358261 
	C54.758389,72.242897 60.561935,72.409668 66.683548,72.778320 
	C61.101086,73.870544 55.174889,76.093582 49.156429,72.358261 
z"/>
<path fill="#E4C560" opacity="1.000000" stroke="none" 
	d="
M69.421082,72.997467 
	C71.108833,72.516891 73.228989,72.046738 75.663986,71.768387 
	C75.832748,72.248016 75.644180,72.504639 75.233765,72.888916 
	C73.320755,73.034492 71.587112,73.021194 69.421082,72.997467 
z"/>
<path fill="#DAB54B" opacity="1.000000" stroke="none" 
	d="
M81.990608,32.015614 
	C81.189171,32.250175 80.387733,32.484737 79.140366,32.568012 
	C77.080582,31.937208 75.485191,31.125414 73.849747,31.034527 
	C65.915779,30.593618 57.971062,30.346054 50.030151,30.029997 
	C52.954758,29.247709 55.845615,28.285168 58.812672,27.729580 
	C62.377819,27.061995 66.007843,26.740887 69.891335,25.977995 
	C70.896255,26.100355 71.619621,26.514484 72.642990,27.020428 
	C72.943001,27.112240 73.136803,27.501608 73.425217,27.988758 
	C75.832809,28.163706 77.951981,27.851503 80.071159,27.539301 
	C82.036560,29.884171 87.092148,28.471968 86.962585,33.654015 
	C86.216805,34.039181 85.547760,34.040936 84.416000,33.760651 
	C83.299049,32.990944 82.644829,32.503281 81.990608,32.015614 
z"/>
<path fill="#6C5C31" opacity="1.000000" stroke="none" 
	d="
M79.950287,27.277523 
	C77.951981,27.851503 75.832809,28.163706 73.528778,28.179979 
	C75.447868,27.162201 77.201057,23.820633 79.950287,27.277523 
z"/>
<path fill="#4B4532" opacity="1.000000" stroke="none" 
	d="
M81.942963,32.370636 
	C82.644829,32.503281 83.299049,32.990944 84.081528,33.767784 
	C83.830231,39.423500 83.450668,44.790035 83.143646,50.579029 
	C83.086388,52.691883 82.956596,54.382278 82.739082,56.486702 
	C82.651360,56.900726 82.195938,56.774357 82.195938,56.774357 
	C82.195938,56.774357 81.723625,56.791576 81.500870,56.869820 
	C81.228859,54.880379 81.179604,52.812691 81.223366,50.022892 
	C81.487885,45.542934 81.659378,41.785084 81.830864,38.027237 
	C81.852341,36.260044 81.873825,34.492851 81.942963,32.370636 
z"/>
<path fill="#E2BF55" opacity="1.000000" stroke="none" 
	d="
M49.694176,30.042660 
	C57.971062,30.346054 65.915779,30.593618 73.849747,31.034527 
	C75.485191,31.125414 77.080582,31.937208 78.851456,32.691803 
	C68.901970,32.781483 58.795452,32.596085 48.342125,32.201973 
	C47.998280,31.567932 48.001244,31.142603 48.009529,30.399559 
	C48.462631,30.073004 48.910419,30.064163 49.694176,30.042660 
z"/>
<path fill="#D3B14D" opacity="1.000000" stroke="none" 
	d="
M43.857735,31.965521 
	C43.559059,32.408890 43.035454,32.782013 42.296230,33.077862 
	C42.598011,32.632149 43.115410,32.263714 43.857735,31.965521 
z"/>
<path fill="#E2BF55" opacity="1.000000" stroke="none" 
	d="
M46.899078,31.903200 
	C47.012482,31.985077 46.529778,32.000896 46.288925,32.009872 
	C46.254532,31.782055 46.500397,31.716211 46.899078,31.903200 
z"/>
<path fill="#4E4B3E" opacity="1.000000" stroke="none" 
	d="
M47.905968,40.427971 
	C48.566944,39.240650 49.208221,38.457237 49.939720,37.382469 
	C51.913494,37.091049 53.797047,37.090988 56.285576,37.350426 
	C57.772652,38.440090 58.654758,39.270252 59.624046,40.512859 
	C59.542923,43.621269 59.374615,46.317230 59.206306,49.013195 
	C57.119362,52.138535 54.537144,54.336964 49.817238,52.583454 
	C51.348663,51.729343 52.880085,50.875233 54.667625,49.719162 
	C55.313919,48.931149 55.704102,48.445095 56.445415,47.521629 
	C52.288040,46.614422 47.219593,47.020931 47.905968,40.427971 
z"/>
<path fill="#4B493E" opacity="1.000000" stroke="none" 
	d="
M65.009331,38.024998 
	C67.743195,38.253845 70.477066,38.482693 73.597000,39.270294 
	C74.275993,42.639263 71.761559,46.063648 75.783333,48.058113 
	C74.030533,54.840660 67.592949,55.920952 62.985176,51.042267 
	C62.833397,50.881561 63.205215,50.226334 63.886269,49.531433 
	C66.851448,49.960220 69.343178,53.216068 71.521408,49.351746 
	C71.768227,48.913883 69.144264,46.875256 67.880676,45.551048 
	C67.675415,45.335949 67.623070,44.974945 67.354652,44.334435 
	C68.622551,43.469917 69.938446,42.572670 71.254349,41.675423 
	C71.207932,41.299934 71.161507,40.924446 71.115089,40.548958 
	C68.637230,40.380112 66.159370,40.211266 63.815063,39.769623 
	C64.302185,39.006214 64.655754,38.515606 65.009331,38.024998 
z"/>
<path fill="#F1D97A" opacity="1.000000" stroke="none" 
	d="
M63.681515,40.042419 
	C66.159370,40.211266 68.637230,40.380112 71.115089,40.548958 
	C71.161507,40.924446 71.207932,41.299934 71.254349,41.675423 
	C69.938446,42.572670 68.622551,43.469917 67.354652,44.334435 
	C67.623070,44.974945 67.675415,45.335949 67.880676,45.551048 
	C69.144264,46.875256 71.768227,48.913883 71.521408,49.351746 
	C69.343178,53.216068 66.851448,49.960220 64.114700,49.299141 
	C62.568375,49.233837 61.346920,49.130627 59.665886,49.020309 
	C59.374615,46.317230 59.542923,43.621269 60.038670,40.492538 
	C61.471245,40.053993 62.576378,40.048210 63.681515,40.042419 
z"/>
<path fill="#E8CF71" opacity="1.000000" stroke="none" 
	d="
M76.132439,48.057457 
	C71.761559,46.063648 74.275993,42.639263 73.905540,39.445549 
	C76.232780,38.734703 78.637550,38.407349 81.436600,38.053616 
	C81.659378,41.785084 81.487885,45.542934 81.052467,49.612019 
	C79.352875,49.301102 77.917213,48.678951 76.132439,48.057457 
z"/>
<path fill="#E6C966" opacity="1.000000" stroke="none" 
	d="
M63.815063,39.769623 
	C62.576378,40.048210 61.471245,40.053993 59.951485,40.080093 
	C58.654758,39.270252 57.772652,38.440090 56.686493,37.375179 
	C59.216476,37.217068 61.950520,37.293705 64.846947,37.697670 
	C64.655754,38.515606 64.302185,39.006214 63.815063,39.769623 
z"/>
</svg>